<?xml version="1.0" encoding="utf-8"?>
<!-- Generator: Adobe Illustrator 23.0.0, SVG Export Plug-In . SVG Version: 6.00 Build 0)  -->
<svg version="1.1" id="Layer_1" xmlns="http://www.w3.org/2000/svg" xmlns:xlink="http://www.w3.org/1999/xlink" x="0px" y="0px"
	 viewBox="0 0 652.9 171.5" style="enable-background:new 0 0 652.9 171.5;" xml:space="preserve">
<style type="text/css">
	.st0{fill:#64296D;}
	.st1{fill:#F15A22;}
	.st2{fill:none;stroke:#64296D;stroke-width:2;stroke-miterlimit:10;}
	.st3{fill:#F15A22;stroke:#86328C;stroke-width:2;stroke-miterlimit:10;}
	.st4{fill:none;stroke:#64296D;stroke-miterlimit:10;}
	.st5{fill:#FFFFFF;}
	.st6{fill:#FBB03B;stroke:#64296D;stroke-width:3;stroke-miterlimit:10;}
	.st7{fill:#E81A4B;}
	.st8{font-family:'AraHamahAlThawra-Regular';}
	.st9{font-size:28.3212px;}
	.st10{fill:#FBB03B;}
	.st11{font-size:28.605px;}
	.st12{clip-path:url(#SVGID_2_);}
	.st13{opacity:0.5;}
	.st14{clip-path:url(#SVGID_4_);}
</style>
<path class="st0" d="M122.8,156.9H62c-22.5,0-40.7-18.2-40.7-40.7V55.4C21.4,33,39.6,14.8,62,14.8h60.8c22.5,0,40.7,18.2,40.7,40.7
	v60.8C163.5,138.7,145.3,156.9,122.8,156.9z"/>
<g>
	<g>
		<g>
			<path class="st1" d="M134,137.5c0.6-1,1.5-1.9,2.7-2.6c1.5-0.9,3.1-1.1,4.4-0.9c1.1-3.8,2.4-9.4,1.1-11.6l-0.1-0.1
				c-3.3,0.3-6.8,1.4-10.1,3.3c-3.3,1.9-6,4.4-7.9,7.1l0.1,0.1C125.3,134.9,130.2,136.5,134,137.5z"/>
			<path class="st2" d="M134,137.5c0.6-1,1.5-1.9,2.7-2.6c1.5-0.9,3.1-1.1,4.4-0.9c1.1-3.8,2.4-9.4,1.1-11.6l-0.1-0.1
				c-3.3,0.3-6.8,1.4-10.1,3.3c-3.3,1.9-6,4.4-7.9,7.1l0.1,0.1C125.3,134.9,130.2,136.5,134,137.5z"/>
		</g>
		<path class="st3" d="M94.4,39.9l-3.5-4.6c-3.1,1.6-5.9,2.5-9,4.2c-3,1.7-5.9,3.5-8.7,5.2l3.2,5.5c2.8-1.8,5.7-3.5,8.7-5.3
			C88.2,43.3,91.3,41.6,94.4,39.9z"/>
		<g>
			<path class="st1" d="M142.1,122.3L94.4,39.5c-3.1,1.6-6.2,3.7-9.3,5.5c-3,1.7-5.9,3.5-8.7,5.3l47.7,82.4c1.9-2.7,4.6-5.2,7.9-7.1
				C135.3,123.7,138.8,122.6,142.1,122.3z"/>
			<path class="st2" d="M142.1,122.3L94.4,39.5c-3.1,1.6-6.2,3.7-9.3,5.5c-3,1.7-5.9,3.5-8.7,5.3l47.7,82.4c1.9-2.7,4.6-5.2,7.9-7.1
				C135.3,123.7,138.8,122.6,142.1,122.3z"/>
		</g>
		<g>
			<path class="st1" d="M139.1,138.3c0,0,1.1-2,1.8-4.3c-1.4-0.2-3,0-4.4,0.9c-1.2,0.7-2.1,1.6-2.7,2.6
				C136.4,138.2,139.1,138.3,139.1,138.3L139.1,138.3z"/>
			<path class="st4" d="M139.1,138.3c0,0,1.1-2,1.8-4.3c-1.4-0.2-3,0-4.4,0.9c-1.2,0.7-2.1,1.6-2.7,2.6
				C136.4,138.2,139.1,138.3,139.1,138.3L139.1,138.3z"/>
		</g>
	</g>
</g>
<path class="st0" d="M101.4,112.1c-0.3,0.2-0.5,0.4-0.8,0.6c0.8,0,1.5,0.1,2.2,0.2c2.2,0.2,4.2,0.7,6,1.3c0.8,0.3,1.6,0.6,2.4,1
	c0.3,0.1,0.5,0.2,0.8,0.3c1.1,0.4,2.2,0.8,3.3,1c2,0.3,4.1,0.1,6.2-0.4c0.2,0,0.4-0.1,0.6-0.1c1-0.3,2.1-0.5,3.1-0.8
	c5.4-1.6,10.5-3.1,16-4.7c0.3-0.1,0.6-0.2,0.9-0.3c-0.1,0-0.2,0-0.2,0c-0.5,0-1.1-0.1-1.6-0.2c-0.5-0.1-1.1-0.2-1.6-0.3
	c-1.1-0.3-2.1-0.6-3.1-0.9c-0.5-0.2-0.9-0.4-1.3-0.6c-0.4-0.2-0.8-0.4-1.1-0.6c-0.7-0.4-1.2-0.7-1.6-1c-0.2-0.1-0.3-0.2-0.4-0.3
	c-0.1-0.1-0.2-0.1-0.2-0.1s0,0,0,0c0.1,0,0.3,0.1,0.6,0.2c0.4,0.2,1.1,0.3,1.8,0.5c0.8,0.2,1.7,0.4,2.6,0.5c1,0.1,2,0.2,3,0.2
	c1,0,2-0.1,3-0.2c0.7-0.1,1.4-0.2,2-0.4c0.2,0,0.4-0.1,0.6-0.1c0.1,0,0.3-0.1,0.4-0.1c0.1-0.6,0.2-1.2,0.2-1.8
	c0.4-6.7,0.4-13.4,0.3-20c-0.3-2.4-0.8-5.3-1.4-8.1c-0.7-3.5-1.7-7-2.6-9.6c-0.8-2.6-1.5-4.3-1.5-4.3s0.8,1.6,1.8,4.1
	c0.4,0.9,0.8,1.9,1.2,3c0.1,0.4,0.3,0.7,0.4,1.1c0.6,1.5,1.1,3.1,1.6,4.8c0-0.8-0.1-1.7-0.1-2.5c-0.5-1.4-0.9-2.8-1.4-4.3
	c-0.3-0.9-0.6-1.8-0.9-2.8c-0.3-0.9-0.6-1.8-0.9-2.8c-0.9-2.5-1.9-5.3-3.4-7.6c-0.2-0.3-0.4-0.6-0.7-1c-0.3-0.4-0.7-0.8-1.2-1.1
	c-0.4-0.3-0.9-0.6-1.5-0.8c-1-0.4-2.2-0.7-3.3-0.9c-1.8-0.3-3.6-0.5-5.4-0.6c-0.6,0-1.1-0.1-1.7-0.1c-1.2-0.1-2.5-0.1-3.7,0.1
	c-0.4,0.1-0.8,0.1-1.2,0.2c-2.9,0.7-5.1,1.5-6.3,4.1c-1,2.1-1.7,3.9-2.3,5.5c-0.1,0.3-0.2,0.7-0.3,1c-0.2,0.6-0.3,1.3-0.4,1.9
	c0.1,0.1,0.2,0.3,0.4,0.3c0.3,0.1,0.6,0.1,0.8,0c0.1-0.2,0.2-0.4,0.3-0.7c0.5-1.1,1.2-2.6,2-4c0.8-1.4,1.6-2.8,2.2-3.8
	c0.6-1,1-1.7,1-1.7s-1,3-2.1,5.9c-0.1,0.4-0.2,0.7-0.4,1.1c-0.2,0.7-0.4,1.4-0.6,2.1c-0.1,0.3-0.2,0.6-0.2,0.9
	c0.1,0,0.2,0.1,0.2,0.1c0.4,0.1,0.9-0.1,1.2-0.3l5.2-9.6l-2.8,9.2c0.1,0.2,0.1,0.4,0.3,0.5c0.2,0.1,0.5,0.2,0.8,0.2
	c0.2,0,0.5,0,0.7-0.1c0.3-0.1,0.5-0.4,0.7-0.6l4.2-9.5l-2,9.3c0.9,0.2,2-0.1,2.7-0.7c0.2-0.2,0.3-0.3,0.5-0.5
	c0.1-0.5,0.3-1.2,0.6-1.9c0.3-0.6,0.7-1.2,1-1.6c0.3-0.4,0.6-0.6,0.6-0.6s-0.1,0.2-0.1,0.5c0,0.1-0.1,0.2-0.1,0.3
	c-0.1,0.3-0.1,0.8-0.2,1.2c0,0.1,0,0.3,0,0.4c0,0.2,0,0.3,0,0.5c0,0.2,0,0.3,0.1,0.5c0.9,0.2,1.8,0.2,2.8,0c0.3-0.1,0.6-0.1,0.9-0.2
	c0.9-0.2,2.2-2.1,2.7-2.8c0,0.1,0,0.2-0.1,0.4c0,0,0,0,0,0s-0.1,0.3-0.2,0.8c-0.1,0.3-0.2,0.7-0.3,1.1c-0.1,0.6-0.3,1.3-0.6,2
	c-0.2,0.7-0.5,1.5-0.8,2.3c-0.3,0.8-0.7,1.6-1.1,2.4c0,0.4,0.1,0.8,0.1,1.4c0,0.3,0,0.7,0.1,1.1c0,0.4,0,0.8,0,1.2
	c0,0.8-0.1,1.7-0.2,2.6c-0.2,1.7-0.6,3.4-1,4.7c-0.4,1.3-0.7,2.1-0.7,2.1s0.1-0.6,0.3-1.7c0-0.1,0-0.3,0.1-0.5c0-0.2,0-0.3,0.1-0.5
	c0.1-1.2,0.1-2.7,0-4.1c0-0.1,0-0.3,0-0.4c-0.1,0.7-0.2,1.3-0.3,2c-0.8,4.6-2.1,9.1-2.7,13.6c0,0.1,0.1,0.3,0.1,0.4
	c0,0.2,0.1,0.5,0.2,0.8c0.1,0.3,0.2,0.6,0.2,0.9c0,0.1,0.1,0.3,0.1,0.5c0.1,0.3,0.2,0.6,0.3,0.9c0.1,0.2,0.1,0.3,0.2,0.5
	c0.1,0.3,0.3,0.6,0.4,0.9c0.3,0.6,0.6,1.2,1,1.7c0.2,0.3,0.3,0.5,0.5,0.7c0.5,0.6,0.9,1.1,1,1.3c0.1,0.1,0.1,0.1,0.1,0.1
	s-0.1,0-0.3-0.1c-0.3-0.2-0.8-0.4-1.3-0.8c-0.4-0.2-0.7-0.5-1.1-0.8c-0.1-0.1-0.3-0.2-0.4-0.3c-0.5-0.4-1.1-0.9-1.7-1.5
	c-1.1-1.1-2-2.3-2.7-3.2c-0.6-0.8-0.9-1.5-1-1.6c-0.4-0.3-0.9-0.6-1.4-0.9c-0.9-0.5-1.8-0.7-2.8-0.9c-0.3,0-0.7-0.1-1-0.1
	c-0.6,0-1.2,0-1.8,0c-1.3,0.1-2.7,0.4-4,0.7c0,0,0,0,0,0c-0.2,0.2-0.5,0.5-0.8,0.7c-0.5,0.6-1.1,1.3-1.7,2.1
	c-0.6,0.8-1.1,1.7-1.5,2.6c-0.2,0.5-0.4,0.9-0.6,1.4c-0.1,0.2-0.2,0.5-0.2,0.7c-0.1,0.2-0.1,0.5-0.2,0.7c-0.2,0.9-0.4,1.8-0.5,2.6
	c0,0.4-0.1,0.7-0.1,1.1c0,0.3,0,0.6,0,0.8c0,0.5,0,0.7,0,0.7s0-0.3-0.1-0.7c0-0.2-0.1-0.5-0.1-0.8c0-0.3-0.1-0.7-0.1-1.1
	c-0.1-0.8,0-1.7,0.1-2.7c0.1-1,0.3-2.1,0.6-3.1c0.3-1,0.7-2.1,1.2-3c0.5-0.9,0.9-1.7,1.4-2.4c-1.2-1.7-3.5-2.5-5.6-3
	c-1.6-0.3-3.3-0.6-4.9-0.7c-3.7-0.2-7.5,0.2-10.9,1.4c-0.2,0.1-0.3,0.2-0.5,0.3c-0.4,0.2-0.8,0.5-1.3,0.8c-0.5,0.3-1.1,0.6-1.8,0.9
	c-1,0.5-2.1,1-3.3,1.5c-0.4,0.2-0.8,0.3-1.3,0.5c-0.8,0.3-1.7,0.6-2.6,0.8c-0.3,0.1-0.7,0.2-1,0.3c-0.9,0.2-1.8,0.6-2.7,1.3
	c0.6-0.1,1.2-0.2,1.8-0.4c0.3-0.1,0.6-0.1,0.9-0.2s0.6-0.1,0.9-0.2c4.4-1,8.6-2.6,8.6-2.6s-0.1,0.1-0.4,0.2
	c-0.2,0.1-0.4,0.2-0.6,0.4c-0.3,0.2-0.6,0.3-0.9,0.5c-1.3,0.8-3.3,1.9-5.3,2.9c-0.3,0.1-0.5,0.3-0.8,0.4c-0.2,0.1-0.4,0.2-0.5,0.3
	c-2.1,1-4.3,1.9-5.8,2.5c-0.4,0.1-0.7,0.3-1,0.4c-0.1,0.3-0.3,0.7-0.4,1.1c-0.3,1.1-0.5,2.3-0.5,3.7c0,1.1,0.2,2.3,0.6,3.6
	c0.2,0.7,0.5,1.3,0.7,2c0.3,0.7,0.6,1.3,1,2c0.6,1,1.3,1.9,2,2.7c1,1.1,2.2,2.1,3.6,2.8c0.3,0.2,0.7,0.3,1.1,0.5l0-0.1
	c0,0,0.1,0,0.4-0.1c0.1,0,0.2,0,0.3,0c0.2,0-9.1,1.2-8.8,1.1c0.3-0.1,0.6-0.1,1-0.2c1.4-0.4,12.9-2.3,14.7-3.2
	c1.8-0.9,3.5-2.2,4.6-3.2c0.6-0.5,1-1,1.3-1.3c0.3-0.3,0.5-0.5,0.5-0.5s-0.1,0.2-0.3,0.6c-0.2,0.3-0.4,0.7-0.7,1.1
	c-0.1,0.1-0.2,0.3-0.3,0.5c-0.1,0.2-0.2,0.3-0.4,0.5c-0.9,1.2-2.1,2.6-3.6,3.8c-0.6,0.5-1.2,1-1.8,1.4c0.1,0,0.1,0,0.2,0
	c1.5-0.5,3.1-0.9,4.7-1.2c0.8-0.2,1.6-0.3,2.4-0.4c0.8-0.1,1.6-0.2,2.4-0.3c1.7-0.6,3.7-1.4,5.6-2.4c1.8-0.9,3.5-2,5-3
	c0.5-0.3,0.9-0.7,1.3-1c0.6-0.5,1.1-0.9,1.5-1.3c0.1-0.1,0.3-0.2,0.4-0.3c0.4-0.4,0.7-0.6,0.7-0.6s-0.2,0.3-0.6,0.7 M107,106.9
	 M123.9,109.9c1.1-0.5,2.2-1.1,3-1.7c0.2-0.1,0.4-0.3,0.6-0.4c0.6-0.4,1-0.8,1.3-1.1c0.3-0.3,0.6-0.5,0.7-0.6c0,0,0,0,0,0
	s0,0.1-0.1,0.2c-0.1,0.1-0.2,0.3-0.3,0.6c-0.2,0.3-0.4,0.6-0.6,0.9c-0.1,0.2-0.3,0.3-0.4,0.5c-0.2,0.2-0.3,0.4-0.5,0.6
	c-0.8,0.7-1.7,1.5-2.9,2.2c-1.2,0.7-2.6,1.2-4,1.5c-1.5,0.3-2.9,0.3-4.3,0.2c-1.3-0.2-2.5-0.5-3.5-0.9c-1-0.4-1.7-0.9-2.2-1.2
	c-0.5-0.4-0.7-0.6-0.7-0.6s0.3,0.1,0.9,0.3c0.5,0.2,1.4,0.5,2.3,0.6c0.2,0.1,0.5,0.1,0.8,0.1c0.5,0.1,1.1,0.2,1.7,0.2
	c0.3,0,0.6,0,0.9,0c1.2,0,2.5-0.1,3.8-0.4C121.5,110.9,122.8,110.5,123.9,109.9z"/>
<path class="st5" d="M139.9,82.6c-0.4-2.4-0.9-5.1-1.6-7.9c-0.8-3.4-1.9-6.8-2.7-9.4c-0.9-2.5-1.5-4.2-1.5-4.2s0.8,1.6,1.8,4
	c0.4,0.9,0.8,1.9,1.2,2.9c0.1,0.4,0.3,0.7,0.4,1.1c0.6,1.5,1.1,3,1.7,4.7c-0.1-0.8-0.2-1.6-0.2-2.4c-0.5-1.4-1-2.8-1.5-4.2
	c-0.3-0.9-0.6-1.8-0.9-2.7c-0.3-0.9-0.6-1.8-1-2.7c-0.9-2.4-1.9-5.2-3.4-7.4c-0.2-0.3-0.4-0.6-0.6-0.9c-0.3-0.4-0.7-0.8-1.1-1.1
	c-0.4-0.3-0.9-0.6-1.4-0.8c-1-0.4-2-0.7-3.1-0.9c-1.6-0.3-3.3-0.5-4.9-0.6c-0.5,0-1-0.1-1.5-0.1c-1.1-0.1-2.2-0.1-3.4,0
	c-0.4,0-0.7,0.1-1.1,0.2c-2.6,0.7-4.6,1.5-5.5,4c-0.8,2-1.4,3.7-1.8,5.3c-0.1,0.3-0.2,0.6-0.2,0.9c-0.1,0.6-0.2,1.2-0.3,1.8
	c0.1,0.1,0.2,0.2,0.4,0.3c0.2,0.1,0.5,0.1,0.8,0c0.1-0.2,0.1-0.4,0.2-0.6c0.4-1.1,1-2.5,1.7-3.9c0.7-1.3,1.3-2.7,1.8-3.7
	c0.5-1,0.8-1.7,0.8-1.7s-0.8,2.9-1.6,5.8c-0.1,0.4-0.2,0.7-0.3,1.1c-0.2,0.7-0.3,1.4-0.4,2c-0.1,0.3-0.1,0.6-0.2,0.9
	c0.1,0,0.1,0.1,0.2,0.1c0.4,0.1,0.8-0.1,1.1-0.3l4.3-9.3l-2.1,9c0.1,0.2,0.1,0.4,0.3,0.5c0.2,0.1,0.5,0.2,0.7,0.2
	c0.2,0,0.4,0,0.6-0.1c0.2-0.1,0.4-0.3,0.6-0.6l3.4-9.3l-1.4,9.1c0.8,0.2,1.8-0.1,2.4-0.7c0.2-0.2,0.3-0.3,0.4-0.5
	c0.1-0.5,0.2-1.2,0.5-1.8c0.2-0.6,0.6-1.2,0.9-1.6c0.3-0.4,0.5-0.6,0.5-0.6s-0.1,0.2-0.1,0.4c0,0.1,0,0.2-0.1,0.3
	c-0.1,0.3-0.1,0.8-0.1,1.2c0,0.1,0,0.3,0,0.4c0,0.2,0,0.3,0.1,0.5c0,0.2,0.1,0.3,0.1,0.4c0.8,0.2,1.7,0.2,2.5,0
	c0.3,0,0.6-0.1,0.8-0.2c0.8-0.2,1.9-2,2.4-2.8c0,0.1,0,0.2,0,0.4c0,0,0,0,0,0s0,0.3-0.1,0.8c0,0.3-0.1,0.7-0.2,1.1
	c-0.1,0.6-0.3,1.2-0.4,1.9c-0.2,0.7-0.4,1.5-0.7,2.2c-0.3,0.8-0.6,1.6-0.9,2.3c0.1,0.4,0.1,0.8,0.2,1.4c0,0.3,0.1,0.7,0.1,1
	c0,0.4,0,0.8,0.1,1.2c0,0.8,0,1.6,0,2.5c-0.1,1.7-0.4,3.4-0.7,4.6c-0.3,1.2-0.5,2-0.5,2s0.1-0.6,0.2-1.6c0-0.1,0-0.3,0-0.4
	c0-0.2,0-0.3,0-0.5c0-1.2,0-2.6-0.1-4c0-0.1,0-0.3-0.1-0.4c-0.1,0.6-0.1,1.3-0.2,1.9c-0.6,4.5-1.5,8.8-1.9,13.3
	c0,0.1,0.1,0.3,0.1,0.4c0.1,0.2,0.1,0.5,0.2,0.8c0.1,0.3,0.2,0.5,0.3,0.8c0,0.1,0.1,0.3,0.2,0.4c0.1,0.3,0.2,0.6,0.4,0.9
	c0.1,0.2,0.1,0.3,0.2,0.5c0.1,0.3,0.3,0.6,0.4,0.9c0.3,0.6,0.6,1.1,1,1.6c0.2,0.2,0.3,0.5,0.5,0.7c0.5,0.6,0.8,1.1,1,1.3
	c0.1,0.1,0.1,0.1,0.1,0.1s-0.1,0-0.2-0.1c-0.3-0.1-0.7-0.4-1.2-0.8c-0.3-0.2-0.7-0.5-1.1-0.8c-0.1-0.1-0.3-0.2-0.4-0.3
	c-0.5-0.4-1.1-0.9-1.6-1.4c-1-1-1.6-2.5-2.3-3.4c-0.3-0.4-1.2-1.2-1.2-1.2c-0.3-0.3-0.3-0.3-0.7-0.6c-0.2-0.2-0.4-0.3-0.7-0.4
	c-0.8-0.4-1.7-0.7-2.6-0.9c-0.3,0-0.6-0.1-0.9-0.1c-0.5,0-1.1,0-1.6,0l-6,0.6c-1.8-2.4-5.9-3.3-8.1-3.6c-0.6-0.1-1.1-0.1-1.7-0.2
	c-3.3-0.2-6.6,0.2-9.7,1.3c-0.1,0.1-0.3,0.2-0.5,0.3c-0.3,0.2-0.7,0.5-1.2,0.7c-0.5,0.3-1,0.6-1.6,0.9c-0.9,0.5-1.9,1-2.9,1.4
	c-0.4,0.2-0.7,0.3-1.1,0.5c-0.7,0.3-1.5,0.6-2.3,0.8c-0.3,0.1-0.6,0.2-0.9,0.3c-0.8,0.2-1.6,0.6-2.4,1.3c0.5-0.1,1.1-0.2,1.6-0.3
	c0.3-0.1,0.6-0.1,0.8-0.2c0.3-0.1,0.6-0.1,0.8-0.2l0.3,0c-0.4,0.6,0.9,1-0.7,1.8c-0.2,0.1,1.3-0.2,1.1,0c-0.2,0.1-0.3,0.2-0.5,0.2
	c-1.9,1-3.8,1.8-5.2,2.4c-0.3,0.1-0.7,0.3-0.9,0.4c-0.1,0.3-0.2,0.7-0.3,1c-0.2,1.1-0.3,2.3-0.3,3.6c0.1,1.1,0.3,2.3,0.7,3.6
	c0.2,0.6,0.5,1.3,0.8,1.9c0.3,0.6-2.2,1.7-1.8,2.3c0.6,0.9-2,2.3-1.2,3.1c1,1.1-1.4,2.5-0.2,3.2c-0.3-0.1-2.8-0.1-0.8,0.7l-0.4,2.8
	c0,0,0.1,0,0.2,0l-0.1,0.3l1-0.5c0,0,0,0,0,0c0,0,0.1,0,0.1,0l-0.1,0c3.5,2.1,20,10.9,34.3-5c0.1-0.1,0.2-0.2,0.3-0.3
	c1.4,0.3,2.7,0.6,3.8,1.1c0.7,0.3,1.5,0.6,2.2,1c0.2,0.1,0.5,0.2,0.7,0.3c1,0.4,2,0.8,3,1c1.9,0.3,3.8,0.1,5.6-0.3
	c0.2,0,0.4-0.1,0.6-0.1c0.9-0.2,1.8-0.5,2.7-0.8c4.8-1.5,9.5-3,14.3-4.4c0.3-0.1,0.5-0.2,0.8-0.3c-0.1,0-0.1,0-0.2,0
	c-0.5,0-1-0.1-1.5-0.2c-0.5-0.1-1-0.2-1.5-0.3c-1-0.3-2-0.6-2.8-0.9c-0.4-0.2-0.8-0.4-1.2-0.6c-0.4-0.2-0.7-0.4-1.1-0.6
	c-0.6-0.4-1.2-0.7-1.5-0.9c-0.2-0.1-0.3-0.2-0.4-0.3c-0.1-0.1-0.1-0.1-0.1-0.1s0,0,0,0c0.1,0,0.3,0.1,0.6,0.2c0.4,0.2,1,0.3,1.7,0.5
	c0.7,0.2,1.5,0.4,2.4,0.5c0.9,0.1,1.8,0.2,2.7,0.2c0.9,0,1.8-0.1,2.7-0.2c0.6-0.1,1.2-0.2,1.8-0.4c0.2,0,0.3-0.1,0.5-0.1
	c0.1,0,0.3-0.1,0.4-0.1c0.1-0.6,0.1-1.1,0.1-1.7C140.5,95.6,140.3,89.1,139.9,82.6z M127,103.1c-0.1,0.1-0.2,0.3-0.3,0.6
	c-0.1,0.2-0.3,0.5-0.5,0.9c-0.1,0.2-0.2,0.3-0.4,0.5c-0.1,0.2-0.3,0.4-0.4,0.5c-0.7,0.7-1.5,1.5-2.6,2.1c-1.1,0.6-2.3,1.2-3.6,1.5
	c-1.3,0.3-2.6,0.3-3.9,0.2c-1.2-0.2-2.3-0.5-3.2-0.9c-0.9-0.4-1.6-0.8-2-1.2c-0.4-0.3-0.7-0.6-0.7-0.6s0.3,0.1,0.8,0.3
	c0.5,0.2,1.2,0.4,2.1,0.6c0.2,0.1,0.5,0.1,0.7,0.1c0.5,0.1,1,0.2,1.5,0.2c0.3,0,0.5,0,0.8,0c1.1,0,2.3-0.1,3.4-0.3
	c1.2-0.2,2.3-0.6,3.3-1.2c1-0.5,1.9-1.1,2.6-1.6c0.2-0.1,0.4-0.3,0.5-0.4c0.5-0.4,0.9-0.8,1.2-1.1c0.3-0.3,0.5-0.5,0.6-0.6
	c0,0,0,0,0,0S127.1,102.9,127,103.1z"/>
<g>
	<g>
		<path class="st6" d="M73.1,31.4l23.3,8.2c0,0-27,74.7-32.3,89.3c-3.3,9.3-8.7,14.4-15.7,11.9c-7.5-2.6-11.7-8.9-7.6-20.1
			C45.6,107.4,73.1,31.4,73.1,31.4z"/>
		<path class="st6" d="M100.1,42.8c-0.7,2-2.6,3.2-4.2,2.6l-26.6-9.5c-1.6-0.6-2.3-2.7-1.6-4.7l0,0c0.7-2,2.6-3.2,4.2-2.6l26.6,9.5
			C100.2,38.6,100.9,40.7,100.1,42.8L100.1,42.8z"/>
		<g>
			<polygon class="st0" points="45.8,127.6 46.8,124.8 54.1,127.4 54.8,125.4 47.5,122.9 49.7,116.7 57.1,119.3 57.8,117.3 
				50.4,114.7 52.6,108.6 60,111.2 60.7,109.2 53.3,106.6 55.5,100.5 62.9,103 63.6,101.1 56.2,98.5 58.4,92.3 65.8,94.9 66.5,92.9 
				59.2,90.4 61.4,84.2 68.7,86.8 69.5,84.8 62.1,82.2 64.3,76.1 71.7,78.7 72.4,76.7 65,74.1 67.2,68 74.6,70.5 75.3,68.6 67.9,66 
				70.1,59.8 77.5,62.4 78.2,60.4 70.8,57.9 73.1,51.7 80.4,54.3 81.1,52.3 73.8,49.7 75.7,44.4 73.7,43.7 43.7,126.9 			"/>
		</g>
	</g>
</g>
<g>
	<text transform="matrix(0.98 0 0 1 542.6198 117.3389)" class="st0 st8 st9">.courses</text>
</g>
<path class="st0" d="M212.3,33.6L230,90.6h-16.5l-1.8-6.8h-17.2l-1.7,6.8h-16.5l17.6-57.1H212.3z M206.3,67.9L203,54.7l-3.3,13.1
	H206.3z"/>
<path class="st0" d="M279.4,90.9h-17.8c-2.4-3.5-4.3-6.2-5.9-8.3c-1.5-2.1-2.8-3.6-3.8-4.7c-1-1-1.7-1.7-2.2-1.9
	c-0.5-0.2-0.8-0.2-1,0.1c-0.2,0.3-0.3,0.7-0.3,1.2c0,0.5,0,1,0,1.3v12.3H232V33.9h21.6c2.5,0,5,0.6,7.4,1.8c2.4,1.2,4.6,2.7,6.3,4.6
	c2.1,2.1,3.7,4.5,4.7,7.2c1,2.7,1.5,5.4,1.5,8.2c-0.1,2.8-0.6,5.5-1.8,8.2c-1.1,2.7-2.7,5.1-4.8,7.3L279.4,90.9z M257.6,54.9
	c0-1.5-0.5-2.8-1.6-3.9c-1.1-1-2.3-1.6-3.9-1.6h-3.8v10.9h3.8c1.5,0,2.8-0.5,3.9-1.6C257,57.7,257.6,56.4,257.6,54.9z"/>
<path class="st0" d="M335.8,33.9v57.1h-16.5V61.4l-10.5,13.9l-10.3-13.9v29.5H282V33.9h16.5l10.3,13.9l10.5-13.9H335.8z"/>
<path class="st1" d="M364.4,33.8c2.8-0.1,5.5,0,8.3,0.4c2.8,0.3,5.5,1,8.4,2c-0.1,0.9-0.2,1.5-0.2,2c0,0.4,0,1.1,0,1.9
	s0,2.2-0.1,3.9c-0.1,1.8-0.2,4.4-0.4,8c-1.7-0.7-3.6-1.3-5.8-1.9c-2.2-0.6-4.2-1-6.1-1.3c-1-0.1-2.1-0.1-3,0.1
	c-1,0.2-1.8,0.5-2.6,1.1c-0.6,0.6-0.7,1.2-0.3,1.8c0.4,0.6,0.9,1.1,1.5,1.5l9,2.9c1.9,0.6,3.6,1.4,5.2,2.4c1.6,1.1,2.9,2.3,4.1,3.7
	c1.2,1.4,2.1,2.9,2.7,4.6c0.7,1.7,1,3.5,1,5.4c0.1,2.8-0.4,5.3-1.3,7.5c-0.9,2.2-2.2,4.2-3.8,5.8s-3.6,3-5.9,4c-2.3,1-4.8,1.7-7.4,2
	c-0.4,0.1-0.9,0.1-1.7,0.1c-0.7,0-1.5,0-2.4,0c-1.6,0.1-3.1,0-4.6-0.1c-1.5-0.1-2.8-0.3-4-0.6c-1.4-0.3-2.9-0.7-4.4-1.2
	c-1.5-0.5-3.4-1.2-5.8-2l3.8-16.9c0.8,0.3,1.6,0.5,2.4,0.8c0.8,0.3,1.6,0.6,2.4,0.9l3.7,1.3c1.2,0.5,2.4,0.9,3.6,1.3
	c1.2,0.4,2.5,0.6,3.8,0.6c0.8-0.1,1.5-0.2,2.1-0.6c0.6-0.3,0.9-1,1-1.8c0-0.6-0.2-1.2-0.6-1.7c-0.4-0.5-0.8-0.9-1.4-1.3
	c-0.6-0.3-1.1-0.6-1.8-0.9c-0.6-0.2-1.2-0.4-1.8-0.6c-2.5-0.6-4.7-1.5-6.8-2.9c-2-1.3-3.8-2.9-5.3-4.6c-1.5-1.8-2.7-3.7-3.5-5.7
	c-0.9-2-1.3-4.1-1.3-6.1c0-1.7,0.2-3.3,0.7-4.9c0.5-1.6,1.2-3,2.2-4.4c1-1.3,2.3-2.5,3.9-3.5c1.5-1,3.4-1.8,5.5-2.3
	C360,34.1,362.3,33.8,364.4,33.8z"/>
<path class="st1" d="M423.8,34.3v16.5h-11.3v40.5h-16.5V50.9h-11.4V34.3H423.8z"/>
<path class="st1" d="M449.7,34.5c3.1,0.5,5.9,1.6,8.5,3.2c2.5,1.6,4.7,3.6,6.4,5.9c1.7,2.4,2.9,5,3.7,7.9c0.8,2.9,0.9,5.9,0.4,9
	c-0.5,3.3-1.5,6.2-3.2,8.8c-1.7,2.6-3.8,4.8-6.3,6.5c0.6,0.6,1.3,1.3,2.2,2.1c0.9,0.8,2,1.5,3.5,2.1c1.4,0.6,2.8,0.6,4.4,0.2
	c1.5-0.4,2.9-1.2,4.1-2.3l11.6,11.5c-1.3,1.3-2.6,2.3-4,3c-1.4,0.8-2.9,1.4-4.4,1.8c-1.5,0.4-3,0.7-4.5,0.8c-1.5,0.1-3,0.2-4.5,0.2
	c-2,0-3.9-0.2-5.6-0.6c-1.8-0.4-3.3-1-4.6-1.7c-1.9-1.1-3.5-2.2-4.9-3.4c-1.4-1.2-2.7-2.3-3.7-3.5c-1.1-1.2-2.1-2.3-2.9-3.4
	c-0.9-1.1-1.8-2.1-2.6-3v12h-16.5V34.3h16.4c0.9,0,2,0,3.4,0C447.7,34.3,448.8,34.4,449.7,34.5z M452.2,57c0-1.5-0.5-2.8-1.6-3.9
	c-1-1-2.3-1.6-3.8-1.6H443v10.9h3.8c1.5,0,2.8-0.5,3.8-1.6C451.6,59.8,452.2,58.5,452.2,57z"/>
<path class="st1" d="M576.3,34.3v57.1h-15.7l-11.3-20.6v20.6H534V34.3h15.7l9.9,22.4V34.3H576.3z"/>
<path class="st7" d="M500.9,31.8c4.1,0,7.9,0.8,11.4,2.3c3.6,1.5,6.7,3.6,9.3,6.3c2.6,2.6,4.7,5.8,6.3,9.3c1.5,3.6,2.3,7.4,2.3,11.4
	c0,4.1-0.8,7.9-2.3,11.4c-1.5,3.6-3.6,6.7-6.3,9.3c-2.6,2.6-5.8,4.7-9.3,6.3c-3.6,1.5-7.4,2.3-11.4,2.3c-4.1,0-7.9-0.8-11.4-2.3
	c-3.6-1.5-6.7-3.6-9.3-6.3c-2.6-2.6-4.7-5.8-6.3-9.3c-1.5-3.6-2.3-7.4-2.3-11.4c0-4.1,0.8-7.9,2.3-11.4c1.5-3.6,3.6-6.7,6.3-9.3
	c2.6-2.6,5.8-4.7,9.3-6.3C493,32.6,496.8,31.8,500.9,31.8z"/>
<path class="st1" d="M633.1,57.3v34.3l-15.5-0.1v-1.7c-2.5,0.9-5,1.6-7.6,1.8c-2.6,0.3-5.2,0.2-7.8-0.2c-2.6-0.4-5.1-1.2-7.6-2.3
	c-2.4-1.1-4.7-2.6-6.8-4.5c-3-2.6-5.3-5.7-6.9-9.2c-1.6-3.5-2.6-7.1-2.8-10.8c-0.2-3.7,0.2-7.4,1.5-11c1.2-3.6,3.1-7,5.7-10
	c2.5-2.8,5.6-5.1,9.2-6.7c3.6-1.6,7.5-2.6,11.5-3c4-0.4,8-0.1,11.9,0.9c3.9,0.9,7.4,2.6,10.3,4.9L617.4,52c-1.9-1.2-3.9-1.9-5.9-2.2
	c-2-0.3-4-0.3-5.8,0.1c-1.8,0.3-3.5,0.9-5,1.7c-1.5,0.8-2.6,1.8-3.3,2.9c-1,1.4-1.7,2.9-2.2,4.6c-0.5,1.6-0.7,3.3-0.7,4.9
	c0.1,1.6,0.4,3.2,1.1,4.7c0.7,1.5,1.7,2.8,3,4c1.3,1.2,2.8,2.1,4.4,2.6c1.6,0.5,3.2,0.7,4.9,0.6c1.7-0.1,3.3-0.6,4.8-1.3
	c1.5-0.7,2.9-1.7,4.1-3.1L617,71h-7.3l2.9-13.8L633.1,57.3z"/>
<path class="st5" d="M516.6,63.7l-23.8,12.9c-1.5,0.8-3.3-0.3-3.2-2l0.8-27.1c0-1.7,1.9-2.7,3.3-1.8l23.1,14.2
	C518.1,60.8,518.1,62.9,516.6,63.7z"/>
<g>
	<text transform="matrix(0.98 0 0 1 174.2682 142.999)" class="st10 st8 st11">entertainemt meets education</text>
</g>
</svg>
