<svg id="Layer_1" data-name="Layer 1" xmlns="http://www.w3.org/2000/svg" viewBox="0 0 1000 1000"><defs><style>.cls-1{fill:#fff;}</style></defs><path class="cls-1" d="M675.84,0h177.7a22.09,22.09,0,0,0,4.29,1.8c61.15,11.62,101.86,47,116.35,107.43,6.17,25.72,4.05,53.51,4.82,80.38.43,15.23-7.4,22.41-22.84,22.8-11,.29-22.1.18-33.16,0-16.44-.21-22.67-5.92-24.75-22.38-2.57-20.34-16.83-33.35-37.44-33.78-12-.26-24.06-.1-36.09-.06-19.34.07-27.46,7.91-27.51,27q-.13,58.51,0,117c0,2.5.39,5,.67,8.24,27.44,0,54.37.16,81.28-.3,2.13,0,5.25-4,6.1-6.75,5.84-18.57,11.13-37.32,16.73-56,4.21-14,10-18.44,24.64-18.56,15.93-.14,31.87.18,47.79-.11,11.91-.22,20.84,3.89,25.58,15.32v744c-6.08,10.91-15.53,13.85-27.66,13.84q-382.2-.33-764.41-.17-91.77,0-183.54,0C7.6,999.78.21,992.64.21,976.2Q.14,613.51.2,250.84c0-16.26,7.52-23.68,24-23.89s33.19-.18,49.78,0c14,.15,20,4.67,24,18.13,5.71,19,11.13,38,17,56.95.77,2.49,3.56,6.11,5.55,6.2,12.9.56,25.83.29,39.67.29V296.13c0-89.49.15-179-.18-268.47C160.08,15.53,163.06,6.08,174,0h250c12.71,6.64,16.78,13.28,14.8,25.22q-18.62,112.05-37.37,224.06c-3.24,19.44-6.37,38.89-9.6,58.63h41c3.75-9.38,6.08-17.81,10.26-25.19,18.09-32,36.66-63.65,55.16-95.38,11.13-19.08,27.77-19,38.95.15,16.72,28.63,33.55,57.2,49.84,86.07,6,10.71,10.7,22.21,16.44,34.27h58.72c-2.7-51.61,3.38-102.74-4.22-154.14-2.37,1-3.15,1-3.5,1.46a18.72,18.72,0,0,0-2.72,4c-5.63,12.73-15.47,17.08-29.07,16.51-17.54-.73-35.13-.07-52.7-.21s-24.77-7.57-24.8-25.16c-.08-41.64.14-83.29-.13-124.94C545,13.29,549.14,4.59,560.62,0h76.16c5.23,5.86,10.4,11.76,15.72,17.53,1.4,1.53,3.23,3.65,4.88,3.66,1.36,0,2.77-2.67,4.08-4.22Q668.68,8.51,675.84,0ZM39.54,960.07H960.46V921.72H948.53q-158.65,0-317.31,0c-4.21,0-8.53.08-12.62-.76-9.52-2-15.35-9.35-15.38-18.66s5.72-16.77,15.24-18.78c4.08-.87,8.4-.8,12.61-.8q159.13-.06,318.28,0h11.06V765.49H679.91c-18.72,0-27.84-6.57-27.64-19.85.2-12.89,9.16-19.2,27.32-19.2H960.31V266.33c-3.16-.14-5.71-.4-8.25-.34-19.29.4-14.52-3-19.86,15.05C909.57,357.69,887.37,434.45,865,511.17c-4.54,15.58-10.1,20-25.56,20q-339.28,0-678.55,0c-15.28,0-21-4.27-25.37-18.93-5.54-18.69-10.86-37.44-16.32-56.15Q92.71,365.31,66.05,274.62c-.94-3.19-3.67-7.75-6.18-8.2-6.5-1.17-13.34-.39-20.33-.39ZM367.8,213.24H200.07v278.1h121.4C337,398.37,352.33,306.1,367.8,213.24Zm568.89-39.49,3.42-1.16c0-9.37.15-18.74,0-28.1C939,83.05,894.57,39.25,833.17,39.08c-42.95-.12-85.89,0-128.84,0-2.84,0-5.68.26-8.27.39-7.63,19.32-10.33,21.17-30.39,21.18-4.55,0-9.15-.42-13.65.08-13.64,1.51-23.28-3.48-29.18-16.12-1.12-2.4-4.48-5.14-6.94-5.28-10.27-.59-20.59-.25-30.83-.25v97.39c10.3,0,19.74.31,29.14-.19,2.71-.14,6.82-2,7.7-4.06,6.57-15.83,19.09-18.85,34.29-17.46,5.81.53,11.71-.07,17.56.18,11.21.47,17.51,5.48,19.88,16.39,1.85,8.51,2.94,17.18,4.52,26.72,18.77,0,37.25-.25,55.71.14,5.81.13,8.27-2.08,10.83-7.07,11-21.51,28.95-32.93,53.08-33.79,15-.54,30-.75,44.89,0,33.32,1.72,57,17.8,69.76,49C933.5,169,935.25,171.3,936.69,173.75ZM475.13,491.41h84.74V320.63H475.13ZM199.93,39.3V172.9H374.52c7.42-44.52,14.78-88.66,22.19-133.1H364.37c-3.62,22.49-7,44.31-10.69,66.07-2.17,12.9-9,18.93-21.85,19q-38.55.32-77.12,0c-14.59-.13-22-7.81-22.14-22.63-.19-18.22,0-36.44-.08-54.66,0-2.77-.37-5.54-.57-8.31ZM781.09,491.65c0-36.95.33-73.26-.19-109.56-.16-10.94-7.88-16.74-19.93-16.86q-31.19-.28-62.37,0c-14.29.11-20.73,6.66-20.87,21-.15,16.56,0,33.13,0,49.7v55.7ZM384.93,348c-8,48.19-15.94,95.7-23.91,143.58h74V348ZM757.41,325.8V197.71H701.46V325.8ZM650.54,348.29H600.47V491.47h38.16c0-31.47.21-62.31-.08-93.15C638.39,381,638.46,363.84,650.54,348.29Zm157.64-.38c11.34,15.14,12.45,31.09,12.23,47.57-.35,26.31-.09,52.64-.09,79v16.82c7.61,2.45,10.1-.59,11.84-6.71,10.91-38.37,22.21-76.64,33.36-114.95,2.05-7,4-14.06,6.16-21.69ZM272.09,39.54V85.38h45.4c2.43-15.36,4.8-30.3,7.26-45.84ZM160.11,348H128.28c10.25,35,20.3,69.38,30.35,103.72l1.48-.39Zm386-67.18-28.55-49.16-28.33,49.16Z"/><path class="cls-1" d="M297,843.61q-66.37,0-132.77-.07c-4.49,0-9.22-.25-13.43-1.63-8.3-2.72-12.47-9.12-12.47-17.83s4.17-15.11,12.47-17.83c4.21-1.39,8.94-1.63,13.43-1.63q132.29-.14,264.57-.07h1c15.84.09,25.25,7.37,25.25,19.53s-9.41,19.5-25.24,19.51Q363.38,843.65,297,843.61Z"/><path class="cls-1" d="M204.76,667.54q52.19,0,104.36,0c10,0,17.84,3.33,21.33,13.42a18.49,18.49,0,0,1-12.16,24,49.25,49.25,0,0,1-13.45,1.58q-100,.13-199.93.06a61.94,61.94,0,0,1-6.82-.16c-11.92-1.37-20.08-9.81-19.66-20.2.45-10.77,8.7-18.52,21-18.6C134.54,667.41,169.65,667.55,204.76,667.54Z"/><path class="cls-1" d="M587.7,726.51c11,.2,19.94,9.14,19.73,19.81s-9.49,19.33-20.42,19.12-20-9.3-19.81-19.82S576.77,726.31,587.7,726.51Z"/><path class="cls-1" d="M97.52,593.81c10.11-.19,19.47,8.91,19.65,19.1s-8.81,19.45-19.07,19.64-19.46-8.81-19.66-19.06S87.33,594,97.52,593.81Z"/><path class="cls-1" d="M921.73,613.4c-.14,10.22-9.39,19.27-19.57,19.15S882.87,623.19,883,613s9.46-19.32,19.56-19.19S921.86,603.29,921.73,613.4Z"/><path class="cls-1" d="M97.71,921.56c-10.12-.07-19.33-9.38-19.27-19.47s9.38-19.33,19.47-19.26,19.33,9.37,19.26,19.46S107.8,921.62,97.71,921.56Z"/><path class="cls-1" d="M543.06,921.56c-10.09,0-19.37-9.26-19.38-19.36s9.26-19.37,19.36-19.37,19.36,9.26,19.37,19.35S553.15,921.55,543.06,921.56Z"/></svg>