<svg id="Layer_1" data-name="Layer 1" xmlns="http://www.w3.org/2000/svg" viewBox="0 0 1840 1483"><defs><style>.cls-1{fill:#64296d;}.cls-2{fill:#e81a4b;}</style></defs><title>Artboard 2</title><path class="cls-1" d="M1846.42.94V486.29c-3.84,4-7.62,8.06-11.54,12q-54.11,54.24-108.25,108.46-27.18,27.24-54.31,54.54c-27.66,27.9-55.68,55.44-83.15,83.53-30.39,31.06-61.3,61.61-92,92.34q-44.12,44.15-88.28,88.23-56.37,56.42-112.68,112.86-15.92,16-31.76,32c-28.3,28.57-57,56.74-85.1,85.52-26.15,26.79-52.82,53.08-79.26,79.59q-42.36,42.47-84.72,84.92-75.71,75.81-151.44,151.58c-.49.49-1,1-1.46,1.48-3.92,4.54-8.52,8.46-12,13.42-2.24.76-4.56.47-6.85.47-13.18,0-26.35-.38-39.52-.44-91.11-.42-182.23,0-273.34-.39-104.31-.48-208.61-.26-312.91-.3q-101.65,0-203.29,0c-1.85,0-3.71.07-5.55,0-1,0-2.34.49-3.16-1.16a59.12,59.12,0,0,1,6.76-7.54l81.75-82q40.62-40.77,81.25-81.55,49.22-49.37,98.44-98.71,32.07-32.16,64.1-64.37,42.58-42.75,85.18-85.48,39.17-39.3,78.31-78.62,47.49-47.64,95-95.27,34-34.14,68-68.3l83.22-83.51q40.14-40.29,80.27-80.58,41.35-41.52,82.74-83,40.14-40.27,80.29-80.56l82.72-83q40.38-40.53,80.76-81.07,64.9-65.06,129.84-130.07,16.9-16.93,33.84-33.82,41.14-41.25,82.25-82.52,40.14-40.29,80.21-80.64A12.67,12.67,0,0,1,1491.22,0c10.16.4,20.33.55,30.5.56Q1682,.77,1842.25.89C1843.64.89,1845,.92,1846.42.94Z"/><path class="cls-2" d="M1360.5,1488.88c-.37-.57-.74-1.13-1.55-1.14-2.31,0-4.62-.1-6.92-.1q-103.26,0-206.51,0-144.12-.16-288.24-.51c-2.3,0-4.6-.24-6.91-.38,3.44-5,8-8.89,12-13.43.45-.52,1-1,1.46-1.48Q939.5,1396,1015.2,1320.15q42.38-42.47,84.71-85c26.44-26.52,53.11-52.83,79.25-79.64,28.09-28.8,56.8-57,85.09-85.56q15.86-16,31.75-32,56.32-56.47,112.67-112.93,44.1-44.16,88.26-88.28c30.71-30.75,61.62-61.32,92-92.4,27.47-28.1,55.48-55.66,83.14-83.58q27.08-27.35,54.3-54.57,54.11-54.27,108.24-108.52c3.91-3.93,7.69-8,11.53-12V847.84c-1.76,2-.94,4.41-.94,6.62q-.2,139.71-.31,279.42-.11,177.49-.14,355Z"/></svg>