<svg id="Layer_1" data-name="Layer 1" xmlns="http://www.w3.org/2000/svg" viewBox="0 0 1000 1000"><defs><style>.cls-1{fill:#fff;}</style></defs><path class="cls-1" d="M210.79,393.26a11.09,11.09,0,0,1-12.26-14.14,314.69,314.69,0,0,1,128.1-172,11.08,11.08,0,0,1,12.18,18.51A292.39,292.39,0,0,0,219.75,385.49,11.09,11.09,0,0,1,210.79,393.26Z"/><path class="cls-1" d="M209.13,396.79a14.47,14.47,0,0,1-13.86-18.65A318.09,318.09,0,0,1,324.75,204.31a14.48,14.48,0,0,1,15.94,24.19A289.1,289.1,0,0,0,223,386.47a14.56,14.56,0,0,1-11.71,10.16h0A14.41,14.41,0,0,1,209.13,396.79Zm123.58-188a7.61,7.61,0,0,0-4.2,1.26A311.34,311.34,0,0,0,201.79,380.1a7.7,7.7,0,0,0,5.14,9.55,7.6,7.6,0,0,0,3.35.24h0a7.75,7.75,0,0,0,6.21-5.38,295.83,295.83,0,0,1,120.44-161.7,7.66,7.66,0,0,0-4.22-14.07Z"/><path class="cls-1" d="M545.89,779.12c-170.9,25.92-331-92-356.95-263a284.82,284.82,0,0,1-3.56-51,11.07,11.07,0,1,1,22.14.42,265.44,265.44,0,0,0,3.32,47.22c24.09,158.83,172.9,268.46,331.73,244.37a293.05,293.05,0,0,0,46.18-10.86,11.08,11.08,0,0,1,6.8,21.09A317,317,0,0,1,545.89,779.12Z"/><path class="cls-1" d="M498.39,786.13c-67.07,0-132.23-21.31-187.37-61.93-68.23-50.26-112.78-124-125.45-207.52a287.59,287.59,0,0,1-3.6-51.54,14.48,14.48,0,1,1,29,.56,261.74,261.74,0,0,0,3.28,46.64C238,669.31,385,777.67,542.05,753.85a289.87,289.87,0,0,0,45.65-10.74,14.49,14.49,0,0,1,8.9,27.58,319.52,319.52,0,0,1-50.2,11.8h0A319.14,319.14,0,0,1,498.39,786.13Zm-302-328.37a7.59,7.59,0,0,0-7.64,7.51,282.16,282.16,0,0,0,3.52,50.39c12.4,81.76,56,153.87,122.76,203.05s148.58,69.45,230.31,57h0a314.26,314.26,0,0,0,49.13-11.55,7.67,7.67,0,1,0-4.72-14.59,297.74,297.74,0,0,1-46.71,11C382.35,785,231.84,674.05,207.47,513.36a268.15,268.15,0,0,1-3.36-47.8,7.67,7.67,0,0,0-7.51-7.8Z"/><path class="cls-1" d="M669.42,731.09A11.07,11.07,0,0,1,661.56,711a292.52,292.52,0,0,0,117.36-161.1A11.07,11.07,0,1,1,800.2,556,314.53,314.53,0,0,1,673.94,729.32,10.86,10.86,0,0,1,669.42,731.09Z"/><path class="cls-1" d="M667.78,734.63a14.48,14.48,0,0,1-8.12-26.49,289.16,289.16,0,0,0,116-159.23,14.48,14.48,0,0,1,17.93-9.9,14.5,14.5,0,0,1,9.9,17.93A318,318,0,0,1,675.85,732.15a14.49,14.49,0,0,1-5.92,2.32h0A14.24,14.24,0,0,1,667.78,734.63ZM789.55,545.26a7.68,7.68,0,0,0-7.36,5.54,295.91,295.91,0,0,1-118.72,163,7.66,7.66,0,1,0,8.57,12.7A311.19,311.19,0,0,0,796.92,555.05a7.68,7.68,0,0,0-5.24-9.49A7.77,7.77,0,0,0,789.55,545.26Z"/><path class="cls-1" d="M803,480.83c-7.8.12-12.76-4.85-12.75-11a295.73,295.73,0,0,0-3.33-44.39C762.85,266.66,614,157,455.2,181.12a294.59,294.59,0,0,0-43.37,10A11.07,11.07,0,1,1,405.24,170a317.09,317.09,0,0,1,46.64-10.73c170.91-25.92,331,92,357,262.94a319.08,319.08,0,0,1,3.59,47.74A11.08,11.08,0,0,1,803,480.83Z"/><path class="cls-1" d="M802.75,484.25A16.51,16.51,0,0,1,791,479.78a13.75,13.75,0,0,1-4.11-9.91A292.26,292.26,0,0,0,783.57,426,288.28,288.28,0,0,0,455.71,184.5a290.74,290.74,0,0,0-42.87,9.85,14.2,14.2,0,0,1-11-.95,14.5,14.5,0,0,1,2.34-26.71,320.27,320.27,0,0,1,47.15-10.84c83.55-12.68,167.15,8,235.38,58.29s112.79,124,125.45,207.51a320.82,320.82,0,0,1,3.64,48.25,14.59,14.59,0,0,1-12.3,14.3l-.46,0ZM499.35,174.37A295.3,295.3,0,0,1,790.3,425a298.09,298.09,0,0,1,3.38,44.9,6.92,6.92,0,0,0,2.08,5.06,9.82,9.82,0,0,0,7,2.5,7.74,7.74,0,0,0,6.29-7.54,315,315,0,0,0-3.56-47.21c-12.4-81.76-56-153.87-122.75-203s-148.54-69.43-230.31-57a313.4,313.4,0,0,0-46.15,10.62,7.68,7.68,0,0,0-5,9.6,7.69,7.69,0,0,0,3.81,4.54,7.51,7.51,0,0,0,5.76.5,299.55,299.55,0,0,1,88.57-13.48Z"/><path class="cls-1" d="M523.17,629.33c-88.31,13.39-171-47.56-184.45-135.87a161.21,161.21,0,0,1,1.46-56.92A11.07,11.07,0,1,1,361.87,441a139.16,139.16,0,0,0-1.24,49.11c11.56,76.24,83,128.86,159.22,117.3s128.86-83,117.29-159.23-83-128.85-159.22-117.29A139.77,139.77,0,0,0,434.49,345a11.08,11.08,0,0,1-10.2-19.68A162,162,0,0,1,474.6,309c88.31-13.4,171,47.55,184.44,135.87S611.49,615.93,523.17,629.33Z"/><path class="cls-1" d="M498.78,634.58c-80.34,0-151-58.81-163.43-140.61a164.86,164.86,0,0,1,1.48-58.11,14.49,14.49,0,0,1,28.39,5.85A136.28,136.28,0,1,0,436.05,348a14.49,14.49,0,0,1-13.33-25.74,165.62,165.62,0,0,1,51.36-16.65C564.26,292,648.74,354.2,662.41,444.37A165.46,165.46,0,0,1,498.78,634.58ZM351,431.12a7.71,7.71,0,0,0-7.53,6.11,158.19,158.19,0,0,0-1.42,55.71c13.12,86.46,94.16,146.12,180.57,133a158.77,158.77,0,0,0,133-180.57c-13.11-86.46-94.14-146.08-180.56-133a158.59,158.59,0,0,0-49.25,16A7.67,7.67,0,0,0,432.93,342a143.14,143.14,0,1,1-74.39,98.36,7.69,7.69,0,0,0-6-9.06A7.93,7.93,0,0,0,351,431.12Z"/><path class="cls-1" d="M113.28,266.73A95.54,95.54,0,1,1,175.92,229,95.3,95.3,0,0,1,113.28,266.73ZM88,99.69a73.4,73.4,0,1,0,54.56,13.44A73.2,73.2,0,0,0,88,99.69Z"/><path class="cls-1" d="M98.68,271.24A98.13,98.13,0,0,1,40.24,252a99.1,99.1,0,1,1,73.55,18.13h0A101.43,101.43,0,0,1,98.68,271.24Zm.4-191.13a92.15,92.15,0,1,0,13.69,183.25h0A92.14,92.14,0,0,0,99.08,80.11Zm-.22,169A76.81,76.81,0,0,1,87.44,96.32h0A76.82,76.82,0,1,1,98.86,249.08Zm-10.39-146a70,70,0,1,0,52,12.82,69.57,69.57,0,0,0-52-12.82Z"/><path class="cls-1" d="M277,477.72a49.74,49.74,0,0,1-8.9.54l-116.94-2.89a46.88,46.88,0,0,1-42.52-29.68L38.37,244a11.08,11.08,0,0,1,20.92-7.28L129.36,438a24.67,24.67,0,0,0,22.31,15.27l116.94,2.9a28.54,28.54,0,0,0,3.31-56.95l-90.07-8.24a11.08,11.08,0,0,1-9.4-7.25l-27.58-76.06a11.08,11.08,0,0,1,4.26-13A203.16,203.16,0,0,0,230.72,183.9,11,11,0,0,1,241.85,176l80.81,3.78a11.07,11.07,0,0,1,9.72,6.83L367,270.17a28.53,28.53,0,0,0,53.39-20L382.91,139.31a24.78,24.78,0,0,0-21.64-16.81L148.7,115.29a11.08,11.08,0,0,1,.75-22.15l213,7.24a47,47,0,0,1,41.42,31.84L441.34,243a50.69,50.69,0,0,1-94.85,35.61L314.6,201.57l-65.29-3.06a225.46,225.46,0,0,1-80.72,109.57l22.28,61.43,83.07,7.62a50.69,50.69,0,0,1,3,100.59Z"/><path class="cls-1" d="M269.41,481.69H268L151,478.77a50.26,50.26,0,0,1-45.59-31.83L35.15,245.08a14.49,14.49,0,0,1,8.92-18.45,14.6,14.6,0,0,1,18.44,8.91l70.08,201.3a21.3,21.3,0,0,0,19.17,13l116.93,2.89a25.12,25.12,0,0,0,2.91-50.13l-90.06-8.24a14.57,14.57,0,0,1-12.29-9.48L141.67,308.8a14.45,14.45,0,0,1,5.56-17,199.61,199.61,0,0,0,80.22-108.88A14.29,14.29,0,0,1,242,172.58l80.78,3.78a14.56,14.56,0,0,1,12.71,8.94l34.58,83.56a25.12,25.12,0,0,0,47-17.63L379.68,140.41A21.37,21.37,0,0,0,361,125.9l-212.43-7.2a14.49,14.49,0,0,1,.62-29h.32L362.59,97a50.66,50.66,0,0,1,44.54,34.15l37.44,110.81a54.09,54.09,0,0,1-101.23,38l-31.06-75.06L251.69,202a230.45,230.45,0,0,1-79,107.28l20.67,57,80.91,7.41a54.1,54.1,0,0,1,3.22,107.36h0A54.26,54.26,0,0,1,269.41,481.69Zm-220.64-249a7.69,7.69,0,0,0-2.49.41,7.67,7.67,0,0,0-4.69,9.75l70.24,201.74A43.39,43.39,0,0,0,151.2,472l117,2.91a48,48,0,0,0,8.3-.51h0a47.28,47.28,0,0,0-2.83-93.82l-85.21-7.82-23.9-65.88,2.08-1.51a223.52,223.52,0,0,0,79.49-107.91l.82-2.43,70,3.29,32.72,79.06a47.27,47.27,0,0,0,88.47-33.2L400.67,133.31a43.84,43.84,0,0,0-38.44-29.53L149.34,96.55a7.91,7.91,0,0,0-7.92,7.41,7.66,7.66,0,0,0,7.4,7.92l212.57,7.22a28.18,28.18,0,0,1,24.75,19.13L423.58,249a31.94,31.94,0,0,1-59.78,22.44l-34.57-83.57a7.69,7.69,0,0,0-6.73-4.73l-80.81-3.79a7.65,7.65,0,0,0-7.7,5.48,206.54,206.54,0,0,1-83,112.61,7.65,7.65,0,0,0-2.94,9l27.57,76.06a7.73,7.73,0,0,0,6.52,5l90.06,8.24a31.95,31.95,0,0,1-3.71,63.75l-116.94-2.89a28.21,28.21,0,0,1-25.38-17.42L56.07,237.79A7.73,7.73,0,0,0,48.77,232.67Z"/><path class="cls-1" d="M915.34,857.56A95.54,95.54,0,1,1,978,819.78,95.28,95.28,0,0,1,915.34,857.56ZM890,690.48A73.45,73.45,0,1,0,944.58,704,72.94,72.94,0,0,0,890,690.48Z"/><path class="cls-1" d="M900.75,862.07a99.4,99.4,0,1,1,15.1-1.14h0A101.4,101.4,0,0,1,900.75,862.07Zm.46-191.18a95,95,0,0,0-14,1.06,92.16,92.16,0,1,0,27.64,182.24h0a92.17,92.17,0,0,0-13.62-183.3Zm-.3,169a76.74,76.74,0,1,1,62-31.23A76.42,76.42,0,0,1,900.91,839.9Zm.26-146.85a70.92,70.92,0,0,0-10.65.81h0a69.64,69.64,0,1,0,10.65-.81Z"/><path class="cls-1" d="M852.57,842.08c-2.05.13-215.07-7.1-215.07-7.1a47.05,47.05,0,0,1-41.42-31.85l-37.44-110.8a50.68,50.68,0,0,1,94.85-35.61l31.89,77.06,65.29,3.08a225.37,225.37,0,0,1,80.71-109.58L809.1,565.83l-83.05-7.61a50.68,50.68,0,0,1,5.87-101.13L848.85,460a46.91,46.91,0,0,1,42.52,29.68l70.24,201.74a11.08,11.08,0,1,1-20.92,7.28L870.61,497.38a24.68,24.68,0,0,0-22.31-15.25l-116.93-2.9a28.53,28.53,0,0,0-3.31,56.94l90.06,8.24a11.08,11.08,0,0,1,9.4,7.25l27.58,76.06a11.06,11.06,0,0,1-4.25,13,203,203,0,0,0-81.59,110.77,11,11,0,0,1-11.14,7.91l-80.8-3.8a11,11,0,0,1-9.72-6.83L633,665.18a28.53,28.53,0,0,0-53.39,20.05L617.07,796a24.78,24.78,0,0,0,21.64,16.82l212.57,7.2a11.08,11.08,0,0,1,1.29,22Z"/><path class="cls-1" d="M852.64,845.49c-5.59,0-165.81-5.42-215.26-7.1a50.72,50.72,0,0,1-44.54-34.16L555.41,693.42a54.1,54.1,0,0,1,101.23-38l31.07,75.07,60.57,2.85A227.3,227.3,0,0,1,827.3,626l-20.67-57-80.89-7.4A54.09,54.09,0,0,1,732,453.68l116.93,2.9a50.32,50.32,0,0,1,45.6,31.83l70.29,201.88a14.49,14.49,0,0,1-27.37,9.52L867.39,498.5a21.31,21.31,0,0,0-19.18-13l-116.93-2.9a24.64,24.64,0,0,0-19.47,8.51,25.12,25.12,0,0,0,16.56,41.62L818.43,541a14.53,14.53,0,0,1,12.3,9.48l27.57,76.06a14.43,14.43,0,0,1-5.56,17,199.61,199.61,0,0,0-80.21,108.89,14.38,14.38,0,0,1-14.61,10.35L677.16,759a14.55,14.55,0,0,1-12.71-8.94l-34.58-83.56a25.12,25.12,0,0,0-47,17.65L620.3,795A21.39,21.39,0,0,0,639,809.46l212.41,7.2a14.48,14.48,0,0,1,1.69,28.79l-.3,0ZM606.72,628.81a48.21,48.21,0,0,0-7.15.54,47.29,47.29,0,0,0-37.7,61.89L599.3,802a43.87,43.87,0,0,0,38.46,29.54c71.72,2.43,207.72,7,214.52,7.09a7.66,7.66,0,0,0-1.12-15.2L638.6,816.26a28.19,28.19,0,0,1-24.76-19.13L576.4,686.32a31.94,31.94,0,0,1,59.77-22.44l34.58,83.57a7.68,7.68,0,0,0,6.73,4.72l80.8,3.8a7.52,7.52,0,0,0,7.71-5.48,206.52,206.52,0,0,1,83-112.62,7.65,7.65,0,0,0,2.95-9l-27.58-76a7.71,7.71,0,0,0-6.52-5l-90-8.25a31.93,31.93,0,0,1-21-52.92,32.46,32.46,0,0,1,24.74-10.82l116.95,2.9a28.25,28.25,0,0,1,25.39,17.41l70.13,201.44a7.66,7.66,0,0,0,14.14.82,7.59,7.59,0,0,0,.33-5.86L888.15,490.79a43.44,43.44,0,0,0-39.38-27.39l-116.94-2.9a47.27,47.27,0,0,0-5.47,94.33l85.21,7.8,23.89,65.9L833.38,630A223.51,223.51,0,0,0,753.9,738l-.82,2.43-70-3.29L650.34,658A47.19,47.19,0,0,0,606.72,628.81Z"/><path class="cls-1" d="M405.33,488.52a11,11,0,0,1-8.22-2L287.88,406a11.07,11.07,0,0,1-2.35-15.49l38.4-52.13,38.6-52.4A11.08,11.08,0,0,1,378,283.65l109.22,80.46a11.06,11.06,0,0,1,2.42,15.39l-38,52.81-39.1,51.92A11,11,0,0,1,405.33,488.52Zm-95.4-93.77,91.49,67.39,32.36-43,31.51-43.72L373.8,308.06Z"/><path class="cls-1" d="M403.64,492.06a14.35,14.35,0,0,1-8.55-2.83L285.86,408.76a14.46,14.46,0,0,1-3.07-20.25l77-104.53a14.51,14.51,0,0,1,20.26-3.07l109.22,80.46a14.5,14.5,0,0,1,3.15,20.12l-38,52.82-39.13,52a14.45,14.45,0,0,1-9.4,5.6A15,15,0,0,1,403.64,492.06ZM371.46,284.91a7.66,7.66,0,0,0-6.18,3.12l-77,104.52a7.67,7.67,0,0,0,1.64,10.72l109.23,80.47a7.67,7.67,0,0,0,5.68,1.41h0a7.61,7.61,0,0,0,5-3l39.09-51.92,38-52.75a7.68,7.68,0,0,0-1.67-10.65L376,286.4A7.61,7.61,0,0,0,371.46,284.91Zm30.65,182-96.95-71.42,67.92-92.18L470,374.7l-33.48,46.47ZM314.7,394l86,63.37,30.33-40.28,29.48-40.93-86-63.36Z"/><path class="cls-1" d="M424.42,422.15a11,11,0,0,1-8.23-2l-89.91-66.24a11.07,11.07,0,1,1,13.14-17.83l89.9,66.23a11.08,11.08,0,0,1-4.9,19.87Z"/><path class="cls-1" d="M422.73,425.69a14.37,14.37,0,0,1-8.57-2.83l-89.9-66.23a14.49,14.49,0,1,1,17.19-23.33l89.89,66.24a14.48,14.48,0,0,1-6.41,26h0A14.69,14.69,0,0,1,422.73,425.69ZM332.86,337.3a7.66,7.66,0,0,0-4.55,13.84l89.9,66.23A7.66,7.66,0,0,0,427.3,405l-89.9-66.24A7.68,7.68,0,0,0,332.86,337.3Z"/></svg>