<svg id="Layer_1" data-name="Layer 1" xmlns="http://www.w3.org/2000/svg" viewBox="0 0 1000 1000"><defs><style>.cls-1{fill:#fff;}</style></defs><path class="cls-1" d="M846.92,970H152.79C70.75,970,4,899.75,4,813.4,4,806,9.7,800,16.71,800H983c7,0,12.71,6,12.71,13.38C995.7,899.75,929,970,846.92,970ZM30.07,826.77c6.38,65.35,59,116.48,122.72,116.48H846.92c63.73,0,116.33-51.13,122.71-116.48Z"/><path class="cls-1" d="M846.92,974H152.8C68.55,974,0,902,0,813.4,0,803.82,7.49,796,16.71,796H983c9.21,0,16.71,7.8,16.71,17.38C999.7,902,931.16,974,846.92,974ZM16.71,804C11.91,804,8,808.23,8,813.4,8,897.54,73,966,152.8,966H846.92c79.83,0,144.77-68.46,144.77-152.6,0-5.17-3.9-9.38-8.7-9.38ZM846.92,947.25H152.8c-65.56,0-120-51.63-126.71-120.09l-.43-4.39H974.05l-.43,4.39C966.93,895.62,912.46,947.25,846.92,947.25ZM34.55,830.77c8.12,62.15,58.23,108.47,118.25,108.47H846.92c60,0,110.11-46.32,118.23-108.47Z"/><path class="cls-1" d="M936.67,826.77H63c-7,0-12.7-6-12.7-13.37V298.49c0-29.5,22.8-53.5,50.83-53.5H367.61c7,0,12.71,6,12.71,13.38s-5.69,13.37-12.71,13.37H101.16c-14,0-25.42,12-25.42,26.75V800H924V298.49c0-14.76-11.4-26.75-25.42-26.75H632.09c-7,0-12.71-6-12.71-13.37S625.07,245,632.09,245H898.55c28,0,50.83,24,50.83,53.5V813.4C949.38,820.79,943.69,826.77,936.67,826.77Z"/><path class="cls-1" d="M936.67,830.77H63c-9.22,0-16.71-7.79-16.71-17.37V298.49c0-31.71,24.59-57.5,54.83-57.5H367.61c9.22,0,16.71,7.79,16.71,17.38s-7.49,17.37-16.71,17.37H101.16c-11.81,0-21.42,10.21-21.42,22.75V796H920V298.49c0-12.54-9.6-22.75-21.41-22.75H632.09c-9.21,0-16.71-7.79-16.71-17.37S622.88,241,632.09,241H898.55c30.23,0,54.83,25.79,54.83,57.5V813.4C953.38,823,945.88,830.77,936.67,830.77ZM101.16,249c-25.82,0-46.83,22.21-46.83,49.5V813.4c0,5.17,3.91,9.37,8.71,9.37H936.67c4.8,0,8.71-4.2,8.71-9.37V298.49c0-27.29-21-49.5-46.83-49.5H632.09c-4.8,0-8.71,4.21-8.71,9.38s3.91,9.37,8.71,9.37H898.55c16.22,0,29.42,13.8,29.42,30.75V804H71.74V298.49c0-16.95,13.2-30.75,29.42-30.75H367.61c4.81,0,8.71-4.2,8.71-9.37s-3.9-9.38-8.71-9.38Z"/><path class="cls-1" d="M850.36,747.64h-701c-7,0-12.71-6-12.71-13.37V343.07c0-7.38,5.69-13.37,12.71-13.37h240.5c7,0,12.71,6,12.71,13.37s-5.69,13.38-12.71,13.38H162.05V720.9H837.66V356.45H613c-7,0-12.71-6-12.71-13.38S606,329.7,613,329.7H850.36c7,0,12.71,6,12.71,13.37v391.2C863.07,741.65,857.38,747.64,850.36,747.64Z"/><path class="cls-1" d="M850.36,751.64h-701c-9.21,0-16.71-7.79-16.71-17.37V343.07c0-9.57,7.5-17.37,16.71-17.37h240.5c9.22,0,16.71,7.8,16.71,17.37s-7.49,17.38-16.71,17.38H166.05V716.9h667.6V360.45H613c-9.21,0-16.71-7.79-16.71-17.38s7.5-17.37,16.71-17.37H850.36c9.22,0,16.71,7.8,16.71,17.37v391.2C867.07,743.85,859.58,751.64,850.36,751.64Zm-701-417.93c-4.8,0-8.71,4.2-8.71,9.36v391.2c0,5.17,3.91,9.37,8.71,9.37h701c4.81,0,8.71-4.2,8.71-9.37V343.07c0-5.16-3.9-9.36-8.71-9.36H613c-4.8,0-8.71,4.2-8.71,9.36s3.91,9.38,8.71,9.38H841.66V724.9H158.05V352.45H389.84c4.81,0,8.71-4.21,8.71-9.38s-3.9-9.36-8.71-9.36Z"/><path class="cls-1" d="M630.1,898.38H369.6c-32,0-58-27.37-58-61v-24c0-7.39,5.69-13.38,12.71-13.38H675.38c7,0,12.71,6,12.71,13.38v24C688.09,871,662.07,898.38,630.1,898.38ZM337,826.77v10.59c0,18.9,14.61,34.28,32.56,34.28H630.1c18,0,32.57-15.38,32.57-34.28V826.77Z"/><path class="cls-1" d="M630.1,902.38H369.61c-34.18,0-62-29.17-62-65v-24c0-9.58,7.5-17.38,16.71-17.38H675.38c9.21,0,16.71,7.8,16.71,17.38v24C692.09,873.21,664.28,902.38,630.1,902.38ZM324.33,804c-4.8,0-8.7,4.21-8.7,9.38v24c0,31.44,24.21,57,54,57H630.1c29.77,0,54-25.58,54-57v-24c0-5.17-3.9-9.38-8.7-9.38ZM630.1,875.64H369.61c-20.17,0-36.57-17.17-36.57-38.28V822.77H666.67v14.59C666.67,858.47,650.27,875.64,630.1,875.64ZM341,830.77v6.59c0,16.69,12.81,30.28,28.57,30.28H630.1c15.75,0,28.57-13.59,28.57-30.28v-6.59Z"/><path class="cls-1" d="M650.09,620.88H349.62c-7,0-12.71-6-12.71-13.37V542.8c0-60.48,30.79-117.14,80.36-147.87a12.37,12.37,0,0,1,17.4,4.74A13.77,13.77,0,0,1,430.16,418c-41.84,25.94-67.84,73.77-67.84,124.82v51.33H637.38V542.8c0-51-26-98.86-67.82-124.8a13.77,13.77,0,0,1-4.51-18.31,12.36,12.36,0,0,1,17.4-4.74C632,425.67,662.8,482.33,662.8,542.8v64.71C662.8,614.89,657.11,620.88,650.09,620.88Z"/><path class="cls-1" d="M650.09,624.88H349.62c-9.22,0-16.71-7.79-16.71-17.37V542.8c0-61.85,31.51-119.82,82.25-151.27a16,16,0,0,1,12.59-1.93,16.63,16.63,0,0,1,10.41,8.12,17.82,17.82,0,0,1-5.89,23.67c-40.68,25.21-65.95,71.73-65.95,121.41v47.33H633.38V542.8c0-49.66-25.26-96.18-65.93-121.4a17.85,17.85,0,0,1-5.89-23.67A16.67,16.67,0,0,1,572,389.61a16.08,16.08,0,0,1,12.59,1.93C635.29,423,666.8,481,666.8,542.8v64.71C666.8,617.09,659.3,624.88,650.09,624.88ZM423.71,397.09a8.21,8.21,0,0,0-4.34,1.25c-48.39,30-78.46,85.35-78.46,144.46v64.71c0,5.16,3.91,9.36,8.71,9.36H650.09c4.8,0,8.71-4.2,8.71-9.36V542.8c0-59.1-30.07-114.45-78.46-144.46a8.15,8.15,0,0,0-6.36-1,8.75,8.75,0,0,0-5.44,4.28,9.76,9.76,0,0,0,3.13,13c43,26.66,69.71,75.79,69.71,128.2v55.33H358.32V542.8c0-52.43,26.72-101.56,69.73-128.22a9.74,9.74,0,0,0,3.13-12.95,8.8,8.8,0,0,0-5.43-4.29A8.32,8.32,0,0,0,423.71,397.09Z"/><path class="cls-1" d="M499.85,364.22c-49,0-88.84-42-88.84-93.51s39.86-93.49,88.84-93.49,88.84,41.94,88.84,93.49S548.84,364.22,499.85,364.22Zm0-160.26c-35,0-63.42,29.95-63.42,66.75s28.46,66.75,63.42,66.75,63.42-29.95,63.42-66.75S534.82,204,499.85,204Z"/><path class="cls-1" d="M499.85,368.22c-51.19,0-92.84-43.74-92.84-97.51s41.65-97.5,92.84-97.5,92.84,43.74,92.84,97.5S551.05,368.22,499.85,368.22Zm0-187c-46.77,0-84.84,40.14-84.84,89.49s38.07,89.5,84.84,89.5,84.84-40.14,84.84-89.5S546.63,181.22,499.85,181.22Zm0,160.24c-37.17,0-67.42-31.73-67.42-70.75S462.68,200,499.85,200s67.43,31.74,67.43,70.75S537,341.46,499.85,341.46Zm0-133.5c-32.76,0-59.42,28.16-59.42,62.75s26.66,62.75,59.42,62.75,59.42-28.15,59.42-62.75S532.62,208,499.85,208Z"/><path class="cls-1" d="M499.85,128.33c-7,0-12.7-6-12.7-13.38V38.05c0-7.39,5.69-13.37,12.7-13.37s12.71,6,12.71,13.37V115C512.56,122.34,506.87,128.33,499.85,128.33Z"/><path class="cls-1" d="M499.85,132.33c-9.21,0-16.7-7.8-16.7-17.38V38.05c0-9.58,7.49-17.38,16.7-17.38s16.71,7.8,16.71,17.38V115C516.56,124.53,509.07,132.33,499.85,132.33Zm0-103.65c-4.79,0-8.7,4.2-8.7,9.37V115c0,5.17,3.91,9.37,8.7,9.37s8.71-4.2,8.71-9.37V38.05C508.56,32.88,504.66,28.68,499.85,28.68Z"/><path class="cls-1" d="M601.57,178.25a12.38,12.38,0,0,1-9.73-4.78,13.85,13.85,0,0,1,1.56-18.84l56-49.43a12.29,12.29,0,0,1,17.9,1.65,13.86,13.86,0,0,1-1.57,18.84l-56,49.43A12.21,12.21,0,0,1,601.57,178.25Z"/><path class="cls-1" d="M601.58,182.26A16.41,16.41,0,0,1,588.7,176a17.91,17.91,0,0,1,2.06-24.33l56-49.44a16.13,16.13,0,0,1,12.22-4,16.37,16.37,0,0,1,11.46,6.21,17.93,17.93,0,0,1-2.06,24.34l-56,49.43A16.29,16.29,0,0,1,601.58,182.26Zm55.95-76.18A8.31,8.31,0,0,0,652,108.2l-56,49.43A9.83,9.83,0,0,0,595,171a8.45,8.45,0,0,0,12.11,1.15l56-49.44a9.83,9.83,0,0,0,1.09-13.35,8.47,8.47,0,0,0-5.9-3.23Q657.89,106.08,657.53,106.08Z"/><path class="cls-1" d="M398.12,178.25a12.22,12.22,0,0,1-8.15-3.13l-56-49.43a13.86,13.86,0,0,1-1.57-18.84,12.27,12.27,0,0,1,17.9-1.65l56,49.43a13.86,13.86,0,0,1,1.57,18.84A12.43,12.43,0,0,1,398.12,178.25Z"/><path class="cls-1" d="M398.12,182.26a16.29,16.29,0,0,1-10.8-4.14l-56-49.43a17.93,17.93,0,0,1-2-24.33,16.4,16.4,0,0,1,11.47-6.23A15.94,15.94,0,0,1,353,102.2l56,49.43A17.93,17.93,0,0,1,411,176,16.43,16.43,0,0,1,398.12,182.26Zm-55.95-76.19-.71,0a8.5,8.5,0,0,0-5.91,3.24,9.84,9.84,0,0,0,1.09,13.35l56,49.43A8.44,8.44,0,0,0,404.74,171a9.82,9.82,0,0,0-1.09-13.35l-56-49.43A8.22,8.22,0,0,0,342.17,106.07Z"/><path class="cls-1" d="M723.29,620.88H276.41c-7,0-12.7-6-12.7-13.37s5.69-13.38,12.7-13.38H723.29c7,0,12.71,6,12.71,13.38S730.31,620.88,723.29,620.88Z"/><path class="cls-1" d="M723.29,624.88H276.41c-9.21,0-16.7-7.79-16.7-17.37s7.49-17.38,16.7-17.38H723.29c9.21,0,16.71,7.8,16.71,17.38S732.5,624.88,723.29,624.88ZM276.41,598.13c-4.8,0-8.7,4.21-8.7,9.38s3.9,9.36,8.7,9.36H723.29c4.8,0,8.71-4.2,8.71-9.36s-3.91-9.38-8.71-9.38Z"/></svg>