<svg id="Layer_1" data-name="Layer 1" xmlns="http://www.w3.org/2000/svg" viewBox="0 0 1000 1000"><defs><style>.cls-1{fill:#fff;}</style></defs><path class="cls-1" d="M442.4,838.52l-231.52,0a17.12,17.12,0,0,1-17.12-17.12l0-194.59a17.11,17.11,0,0,1,17.12-17.12l231.52,0a17.11,17.11,0,0,1,17.12,17.12l0,194.6a17.11,17.11,0,0,1-17.12,17.12ZM228,804.25l197.28,0,0-160.36L228,643.9Z"/><path class="cls-1" d="M442.4,842.81l-231.52,0a21.43,21.43,0,0,1-21.41-21.4l0-194.59a21.24,21.24,0,0,1,6.27-15.14,21.54,21.54,0,0,1,15.13-6.27l231.53,0a21.42,21.42,0,0,1,21.41,21.41l0,194.6a21.39,21.39,0,0,1-21.4,21.41ZM210.89,613.94a12.85,12.85,0,0,0-12.83,12.84l0,194.59a12.85,12.85,0,0,0,12.84,12.83l231.52,0a12.85,12.85,0,0,0,12.84-12.84l0-194.6A12.87,12.87,0,0,0,442.42,614ZM429.56,808.56l-205.85,0,0-168.92,205.86,0ZM232.28,800,421,800l0-151.79-188.72,0Z"/><path class="cls-1" d="M326.62,995.94a17.14,17.14,0,0,1-13.79-7L197.09,831.51a17.11,17.11,0,0,1,13.79-27.26l231.52,0a17.12,17.12,0,0,1,13.79,27.26L340.42,989A17.13,17.13,0,0,1,326.62,995.94Zm-81.9-157.45,81.91,111.42,81.93-111.39Z"/><path class="cls-1" d="M326.62,1000.22a21.51,21.51,0,0,1-17.24-8.72L193.63,834.05A21.41,21.41,0,0,1,210.88,800l231.52,0a21.41,21.41,0,0,1,17.25,34.09L343.87,991.5A21.49,21.49,0,0,1,326.62,1000.22ZM210.88,808.53A12.84,12.84,0,0,0,200.54,829L316.29,986.42c4.82,6.55,15.87,6.55,20.68,0L452.75,829a12.85,12.85,0,0,0-10.35-20.44ZM326.63,957.15,236.25,834.2l180.78,0ZM253.19,842.77l73.44,99.91,73.46-99.87Z"/><path class="cls-1" d="M326.64,838.5a17.12,17.12,0,0,1-17.12-17.12l0-194.59a17.12,17.12,0,1,1,34.24,0l0,194.59A17.13,17.13,0,0,1,326.64,838.5Z"/><path class="cls-1" d="M326.64,842.78a21.43,21.43,0,0,1-21.41-21.4l0-194.59a21.41,21.41,0,1,1,42.81,0l0,194.59A21.42,21.42,0,0,1,326.64,842.78Zm0-228.83a12.85,12.85,0,0,0-12.83,12.84l0,194.59a12.84,12.84,0,0,0,25.68,0l0-194.59A12.85,12.85,0,0,0,326.66,614Z"/><path class="cls-1" d="M429.36,643.92l-205.4,0a60.29,60.29,0,0,1,0-120.57l97,0a17.12,17.12,0,0,1,0,34.24H224a26,26,0,0,0,0,52.08l205.4,0a26,26,0,0,0,0-52.08H393a17.12,17.12,0,1,1,0-34.24h36.33a60.28,60.28,0,1,1,0,120.56Z"/><path class="cls-1" d="M429.36,648.2l-205.4,0a64.57,64.57,0,0,1,0-129.13h97a21.41,21.41,0,1,1,0,42.81H224a21.76,21.76,0,1,0,0,43.51l205.4,0a21.76,21.76,0,1,0,0-43.51H393a21.41,21.41,0,1,1,0-42.81h36.33a64.57,64.57,0,1,1,0,129.13ZM224,527.62a56,56,0,1,0,0,112l205.4,0a56,56,0,0,0,0-112H393a12.84,12.84,0,0,0,0,25.68h36.33a30.32,30.32,0,1,1,0,60.64l-205.4,0a30.33,30.33,0,0,1,0-60.65h97a12.84,12.84,0,1,0,0-25.67Z"/><path class="cls-1" d="M429.36,643.92l-205.4,0A60.1,60.1,0,0,1,176,547.32l-2.24-4.87c-16.9-36.83-38.39-74.2-69.67-121.21A266,266,0,0,1,59.55,276.3C58.06,135.07,171.4,14.11,312.21,6.66c74.22-3.9,144.61,22,198.33,72.92s83.33,119.84,83.32,193.89A265.1,265.1,0,0,1,543.48,429.6c-22.68,31.45-43.34,68-65,115.19l-1.18,2.58a59.54,59.54,0,0,1,12.34,36.27A60.35,60.35,0,0,1,429.36,643.92ZM211,541.53a17.2,17.2,0,0,1-3.52,22.16,25.91,25.91,0,0,0,16.44,46l205.4,0a25.87,25.87,0,0,0,16.46-46,17.12,17.12,0,0,1-5.2-19,17.72,17.72,0,0,1,2-4l4.71-10.26c22.6-49.21,44.32-87.65,68.35-120.94A232.94,232.94,0,0,0,487,104.43C440.14,60,378.76,37.43,314,40.86,191.28,47.35,92.49,152.8,93.79,275.94a231.84,231.84,0,0,0,38.83,126.33c32.31,48.55,54.6,87.38,72.29,125.89Z"/><path class="cls-1" d="M429.36,648.2l-205.4,0a64.56,64.56,0,0,1-64.56-64.57,63.4,63.4,0,0,1,11.68-36.79l-1.19-2.58c-16.79-36.57-38.18-73.78-69.34-120.63A270.17,270.17,0,0,1,55.26,276.35C53.75,132.85,168.92,10,312,2.38c75.37-3.91,147,22.35,201.5,74.09s84.67,121.76,84.67,197A269.56,269.56,0,0,1,547,432.11c-22.52,31.2-43,67.58-64.58,114.47l-.12.28a63.32,63.32,0,0,1,11.67,36.78A64.63,64.63,0,0,1,429.36,648.2ZM326.8,10.56q-7.16,0-14.36.38C173.9,18.27,62.37,137.29,63.83,276.25a261.73,261.73,0,0,0,43.85,142.62c31.43,47.23,53,84.8,70,121.79l3.32,7.22-1.56,2A55,55,0,0,0,168,583.62a56,56,0,0,0,56,56l205.4,0a56.07,56.07,0,0,0,56-56A54.91,54.91,0,0,0,473.91,550l-1.57-2.05,2.25-4.92c21.78-47.42,42.57-84.25,65.43-115.92a261.07,261.07,0,0,0,49.56-153.62c0-72.87-29.12-140.62-82-190.78A260.62,260.62,0,0,0,326.8,10.56ZM429.36,614l-205.4,0a30.16,30.16,0,0,1-19.17-53.56,12.83,12.83,0,0,0,3.74-14.24,12.27,12.27,0,0,0-1.13-2.37l-.25-.46L201,530c-17.58-38.29-39.77-76.93-71.95-125.31A236.12,236.12,0,0,1,89.5,276c-1.32-125.4,99.29-232.8,224.29-239.41,65.88-3.48,128.43,19.51,176.12,64.74A237.2,237.2,0,0,1,519.2,412.06c-23.85,33.05-45.44,71.25-67.94,120.23l-4.7,10.25a17.14,17.14,0,0,0-1.9,3.63,12.88,12.88,0,0,0,3.89,14.25A30.14,30.14,0,0,1,429.36,614ZM214.84,539.51a21.92,21.92,0,0,1,1.76,3.73A21.46,21.46,0,0,1,210.26,567,21.62,21.62,0,0,0,224,605.37l205.4,0A21.58,21.58,0,0,0,443.09,567a21.43,21.43,0,0,1-4-28.69l4.35-9.61c22.73-49.51,44.58-88.17,68.77-121.67a228.65,228.65,0,0,0-198-361.91C193.77,51.51,96.8,155,98.07,275.89a227.62,227.62,0,0,0,38.12,124c32.44,48.76,54.83,87.76,72.6,126.47Z"/><path class="cls-1" d="M507.29,292.58a17.13,17.13,0,0,1-17.13-17.12A163.46,163.46,0,0,0,317.79,112.22,17.12,17.12,0,0,1,316,78c54.9-2.86,107,16.26,146.76,54a195.93,195.93,0,0,1,61.67,143.48A17.13,17.13,0,0,1,507.29,292.58Z"/><path class="cls-1" d="M507.29,296.87a21.43,21.43,0,0,1-21.41-21.41A159.2,159.2,0,0,0,318,116.49a20.57,20.57,0,0,1-15.3-5.33,21.4,21.4,0,0,1,13-37.42c56.08-2.87,109.37,16.65,149.93,55.13a200.2,200.2,0,0,1,63,146.59A21.43,21.43,0,0,1,507.29,296.87ZM327.05,107.68a167.79,167.79,0,0,1,167.4,167.78,12.84,12.84,0,1,0,25.67,0A193.41,193.41,0,0,0,316.21,82.3a12.83,12.83,0,0,0-7.79,22.46,12.44,12.44,0,0,0,9.1,3.18C320.7,107.76,323.88,107.68,327.05,107.68Z"/><path class="cls-1" d="M326.68,441.32a17.12,17.12,0,0,1-17.12-17.13V272.93a17.13,17.13,0,0,1,34.25,0l0,151.26A17.13,17.13,0,0,1,326.68,441.32Z"/><path class="cls-1" d="M326.68,445.6a21.43,21.43,0,0,1-21.41-21.41l0-151.26a21.41,21.41,0,0,1,42.81,0V424.19A21.43,21.43,0,0,1,326.68,445.6Zm0-185.51a12.85,12.85,0,0,0-12.84,12.84l0,151.26a12.84,12.84,0,1,0,25.68,0V272.93A12.85,12.85,0,0,0,326.7,260.09Z"/><path class="cls-1" d="M261.35,460.1A17.11,17.11,0,0,1,246,450.65L190.21,339.24a17.13,17.13,0,0,1,30.63-15.33l55.81,111.4a17.13,17.13,0,0,1-15.3,24.79Z"/><path class="cls-1" d="M261.35,464.38a21.32,21.32,0,0,1-19.16-11.81L186.38,341.16A21.41,21.41,0,0,1,224.67,322l55.81,111.4a21.4,21.4,0,0,1-19.13,31ZM205.52,318.73a12.85,12.85,0,0,0-12.17,8.8,12.72,12.72,0,0,0,.7,9.79l55.81,111.41a13.06,13.06,0,0,0,17.22,5.72,12.82,12.82,0,0,0,5.73-17.22L217,325.83a12.7,12.7,0,0,0-7.42-6.44A12.88,12.88,0,0,0,205.52,318.73Z"/><path class="cls-1" d="M392,460.11a17.12,17.12,0,0,1-15.29-24.79l55.83-111.39a17.12,17.12,0,1,1,30.61,15.34L407.33,450.66A17.12,17.12,0,0,1,392,460.11Z"/><path class="cls-1" d="M392,464.4a21.42,21.42,0,0,1-19.13-31L428.72,322A21.4,21.4,0,1,1,467,341.19L411.16,452.58A21.28,21.28,0,0,1,392,464.4Zm55.87-145.63a12.85,12.85,0,0,0-11.5,7.08L380.55,437.24a12.84,12.84,0,0,0,5.72,17.22,13,13,0,0,0,17.22-5.72l55.84-111.39a12.83,12.83,0,0,0-11.45-18.58Z"/><path class="cls-1" d="M616.29,996l-441.44,0a17.13,17.13,0,0,1,0-34.25l441.44.05a17.12,17.12,0,0,1,0,34.24Z"/><path class="cls-1" d="M616.29,1000.26l-441.44,0a21.41,21.41,0,0,1,0-42.81l441.44,0a21.41,21.41,0,0,1,0,42.82ZM174.85,966a12.84,12.84,0,1,0,0,25.67l441.44.05a12.84,12.84,0,0,0,0-25.68Z"/><path class="cls-1" d="M584.13,720.42,581.38,736q5.5-8.25,17-12.39a59.06,59.06,0,0,1,13.31-2.52,56.23,56.23,0,0,1,16.52,1.15,74.23,74.23,0,0,1,17.21,6,56.51,56.51,0,0,1,15.37,11Q675,753,675,809q0,55.53-20.65,69.76t-51.41,13.77q-30.75,0-53.23-6.89V838.83q12.84,7.35,34.42,8.72,21.57.93,33.51-4.13,12.38-5,11.47-36.72-.47-31.66-11-38.09a25.55,25.55,0,0,0-21.8-2.07q-11.25,3.91-17.67,16.3l-40.39-22.49L546,633.22H655.27v45.89H587.8Z"/><path class="cls-1" d="M766.79,631.84q36.72-.45,55.54,21.57,18.34,21.58,18.35,107.4T822.33,869.58q-18.84,23-54.62,22.95-34.89.45-55.53-22.95T691.52,761.73q0-84.45,20.66-107.4Q732.82,631.85,766.79,631.84Zm0,45.44q-13.56,0-21.68,9.18-7.68,9.18-7.68,75.73t8.13,75.26a28.57,28.57,0,0,0,21.23,8.73q13.1,0,20.33-8.73,7.67-9.16,7.68-75.26,0-67-7.23-75.73Q779.88,677.28,766.78,677.28Z"/><path class="cls-1" d="M931.55,769.53v45H899.43v-45H861.79V733.27h37.64V688.75h32.12v44.52h35.8v36.26Z"/></svg>