<svg id="Layer_1" data-name="Layer 1" xmlns="http://www.w3.org/2000/svg" viewBox="0 0 1000 1000"><defs><style>.cls-1{fill:#fff;}</style></defs><path class="cls-1" d="M29.5,939.53v-9.3c1.35-5.8,2.14-11.8,4.13-17.37,9.65-27.09,19.56-54.09,29.51-81.07,16-43.5,31.9-87,48.41-130.36a92.73,92.73,0,0,1,14.06-24.52c12.61-15.79,30.71-20.83,49.94-21,55.23-.38,110.45-.14,165.68-.14h7.43c-5.75-11.51-11.55-21.8-16.15-32.6-10.13-23.82-25.18-44.22-42.43-63.16-10.89-11.95-22.89-23-32.87-35.65a373.09,373.09,0,0,1-30.85-45.06,273,273,0,0,1-26.18-63.47C194,393.59,189.59,371.05,189,348a397.59,397.59,0,0,1,1.23-46.83,315.51,315.51,0,0,1,7.36-46.09,306,306,0,0,1,30-75.9c13.61-24.54,30.45-46.55,49.7-66.71,8.7-9.11,18.67-17.06,28.4-25.12C332.07,65.43,361.75,49.26,394.17,38c7.25-2.52,15-4.47,21.32-8.59,15.31-10,30.58-19.78,48.66-24C472,3.54,479.81,1.79,487.64,0H519c3.6.77,7.19,1.7,10.82,2.29,19.62,3.23,37.37,11,53.71,22.12,9.32,6.37,17.67,14.2,29,17.38,5.79,1.63,11.24,4.53,16.75,7A286.85,286.85,0,0,1,704.45,98c12.78,11.63,24.21,24.81,35.68,37.79a226.9,226.9,0,0,1,35.69,54.06,516.73,516.73,0,0,1,21.46,54.32c7,20.79,10.14,42.59,11.08,64.43,1.21,28.2.13,56.36-5.45,84.27a304.22,304.22,0,0,1-21.28,66.93c-10.85,23.81-24.37,46.16-41.51,65.86C725.93,541.94,710,556.76,695,572.35c-3.16,3.28-6.38,6.74-8.53,10.69-9.51,17.51-18.68,35.2-27.88,52.88-3.29,6.34-6.33,12.82-9.8,19.89H656c41.27,0,82.54-.08,123.81.06,12.13,0,24.29.24,36.37,1.21,19.53,1.58,35.74,10.16,45.69,27.19,8,13.67,14.4,28.33,20.64,42.92q18.54,43.34,36.07,87.11c14.59,36.43,33.39,71.14,44.61,109v20.93c-.36.39-1,.74-1,1.18-3.83,21.57-15.21,37.7-34.87,47.52-6,3-12.48,4.77-18.75,7.11H85.32c-4.6-2-9.21-3.88-13.8-5.86-18.44-8-32.17-20.53-38.47-40.11C31.53,949.31,30.67,944.37,29.5,939.53Zm342-854.93c-8.13,4.86-16.46,9.39-24.31,14.62a278,278,0,0,0-56.9,49.67c-14.62,17-27.88,34.85-37.39,55a457.77,457.77,0,0,0-21.46,54.32,198.58,198.58,0,0,0-9.9,61.77c0,14.49,2.09,29,3.24,43.48,1.46,18.26,5.88,35.88,11.37,53.28a248.61,248.61,0,0,0,40.62,78.41,327.59,327.59,0,0,0,36.54,39.93c13.81,12.72,26.33,26,34.76,42.89q44.22,88.35,88.47,176.71c5.18,10.29,12.06,19.63,22,26,20.67,13.24,42.62,17,66,7.8,17.59-6.92,29.28-20.06,37.52-36.46,29.18-58,58.08-116.13,87.31-174.1a85.13,85.13,0,0,1,12.22-18.48c13.17-14.68,27.07-28.72,40.52-43.16a248.15,248.15,0,0,0,16.56-19.1c16.44-21.71,30.36-44.87,40-70.52,9.4-25.1,15.19-51,16.08-77.74a372.22,372.22,0,0,0-1.17-41,281.61,281.61,0,0,0-5.1-36.71A272.09,272.09,0,0,0,740,195.41c-10.52-18.88-22.72-36.58-37.74-52.09a388.83,388.83,0,0,0-32.18-29.78c-9.87-8.13-20.84-14.92-31.32-22.3a7.22,7.22,0,0,0-.25,4.64c2.43,13.41,4.72,26.86,7.38,40.23a13.78,13.78,0,0,0,3.79,6.6c6.74,6.71,13.91,13,20.67,19.7,18.9,18.74,33,40.72,43.9,64.91,12.51,27.76,18.7,57.05,19.61,87.24a234.18,234.18,0,0,1-3.52,45.75,217.38,217.38,0,0,1-26.59,73.93c-13.17,22.6-29.19,42.78-49.1,60A239.18,239.18,0,0,1,591,533.78c-26.61,11.3-54.55,16.57-83.23,17.14-13.49.27-27.11-1.55-40.55-3.33-26.77-3.54-51.86-12.44-75.4-25.63-22.81-12.78-43.11-28.59-60.48-48.38a240.14,240.14,0,0,1-38-58.59A209.71,209.71,0,0,1,274,338.77a279.37,279.37,0,0,1,2.37-54.68,210,210,0,0,1,25.37-74.3c13.88-24.51,30.83-46.43,52.63-64.47,3.64-3,7.6-5.88,6.73-12.08-.57-4,.65-8.32,1.59-12.39C365.47,109,368.47,97.14,371.54,84.6ZM349,442.36c1.36-1.12,1.83-1.46,2.25-1.86,11-10.52,26.12-6.25,29.4,8.82,1.41,6.45,1.2,13.34,1.08,20a9.12,9.12,0,0,0,4.07,8.3,205.47,205.47,0,0,0,44,24.79c19.53,7.81,39.6,13.17,60.72,13.8,8.94.27,17.92.39,26.85-.05a165.25,165.25,0,0,0,23.28-2.65c23.83-4.64,45.9-13.85,66.76-26.26,17.88-10.63,18.62-11.44,18.62-32,0-1.35,0-2.71,0-4.07a15.83,15.83,0,0,1,10.8-15.19c8.29-3,14.8,0,20.72,6.28a20.47,20.47,0,0,1,1.26-2.25c19.77-24.39,31.35-52.55,37.9-82.94.62-2.88.24-7.07-1.48-9.17-13.52-16.55-29.51-30.47-47-42.73a259.32,259.32,0,0,0-65.35-32.88c-5.17-1.77-10.54-5.49-16.79-2.38a136,136,0,0,1-76.37,13.92,145.94,145.94,0,0,1-49-13.72c-1.78-.87-4.21-1.76-5.91-1.24-22,6.82-43.16,15.48-62.85,27.54a261.53,261.53,0,0,0-58.77,49.74c-2,2.22-3.48,6.32-2.94,9.11,4.25,21.86,11.11,42.88,22.75,62.05C338.12,425.78,343.59,434,349,442.36ZM295.38,966.28h8.5q287.43,0,574.86,0A176.41,176.41,0,0,0,902.31,965c19.57-2.63,31-21.14,26.14-37.54-3-9.94-7.28-19.45-10.78-29.23-3.94-11.05-7-13.35-18.83-13.35H348.38a15.19,15.19,0,0,0-4.05.06c-6.94,2-14.18,4-17.84,10.84-3.94,7.33-7,15.15-10.33,22.79C309.34,934.16,302.57,949.77,295.38,966.28ZM414.62,786.05c-4.57-8.5-8.88-16.08-12.79-23.85q-16-31.89-31.79-63.92c-2.85-5.78-6.87-8.89-13.79-8.85-36.24.22-72.48.1-108.72.11-7.89,0-10.48,1.56-13,8.61q-18.27,50.43-36.33,100.94c-6.78,19-18.31,32.72-39.28,36.15a103.65,103.65,0,0,1-14.77,1.56c-11.78.2-23.6.56-35.33-.22-6.62-.44-11.87,1.28-14.08,7.46s-4.25,12.54-6.51,18.77C80.92,882.9,73.5,903,66.28,923.07c-3.48,9.7-2.31,19,3,27.85,7.35,12.14,19.45,14.9,32,15.2,23.82.56,47.66.11,71.5.2,5,0,8.35-2.25,10.43-6.61s4.25-8.9,6.25-13.41q11.22-25.2,22.34-50.45c9.19-21,17.44-42.46,27.59-63,15.28-30.89,41.5-46,75.55-46.67C347.72,785.53,380.48,786.05,414.62,786.05ZM503.14,34.88C443.39,34.79,396.89,83.55,396,139.3c-1.05,64,48.26,110,106.93,110.24,60.29.22,105-45.88,108-102.22C614.13,84.45,561.08,33.45,503.14,34.88ZM218.25,966.28c11.45,0,21.84-.16,32.22.06,5.92.12,9.26-3,11.45-7.89s4.22-10.13,6.38-15.17c6.84-16,13.74-32,20.57-48,4.64-10.87,9.1-22,18.07-30.09,10.93-9.89,24.38-13.9,38.81-13.91q271.71-.15,543.43-.07h8.05c-3-7.49-5.84-14.25-8.34-21.14-2.84-7.82-5.88-10.21-14.23-10.24q-15.39-.06-30.8,0c-98.73.38-197.46.66-296.19,1.34-10,.07-19.92,3.23-29.95,3.81-12.54.73-25.39,1.84-37.67-.07-14.91-2.31-29.64-5.17-44.8-5.11-23.83.1-47.66-.12-71.49.07-18.91.16-37.87,0-56.69,1.39-12.58.94-24.3,6.29-31,17.75a415.23,415.23,0,0,0-19.48,38.4c-10.79,23.81-21,47.89-31.39,71.87C222.9,954.55,220.81,960,218.25,966.28ZM583.11,785.92h287c-4.28-10.11-8.29-19.9-12.69-29.52-.49-1.08-3.12-1.67-4.76-1.68-18.59-.11-37.19.17-55.78-.14-15.69-.27-29.06-6.63-37-20.19-6.31-10.84-10.26-23.07-14.94-34.81-2.78-7-6-10-13.33-10-30.6-.09-61.2-.13-91.81.07-4.48,0-8.86,1.22-11.31,6.13C621,710.91,613.12,725.89,605.49,741,598,755.74,590.75,770.56,583.11,785.92ZM110.83,802.33h34.83c9.35,0,16.19-4.38,19.46-13.09,8.37-22.29,16.56-44.65,24.76-67,3.93-10.72,7.73-21.49,11.75-32.69-7.79,0-15-.38-22.09.08-19.62,1.25-29.64,5.36-37.39,26.95-6.13,17.08-12.81,34-19.07,51C118.9,778.88,115,790.34,110.83,802.33ZM606,242c16.57,8.59,33.42,16.1,49,25.71s29.73,21.29,43.88,31.6c-5.2-45.42-24.56-85-57.77-118.56C629.1,212.92,627.89,215,606,242ZM366.08,180.56c-29.65,27.18-60.92,92.72-56.8,119.07a289.62,289.62,0,0,1,92.91-56.75C385.05,224.6,372.81,204.35,366.08,180.56ZM840.9,720.9c-1.81-13.87-11.34-26.15-22.2-29-13.32-3.48-26.69-2.68-40.16-.66,1.16,4.2,2,8.26,3.39,12.15,2.88,8.35,7.06,16.57,16.75,17.25C812.67,721.62,826.78,720.9,840.9,720.9Z"/></svg>